{"glyphs":{"0":{"ha":736,"x_min":53,"x_max":683,"o":"m 153 833 q 368 919 236 919 q 513 888 453 919 q 613 797 572 857 q 668 649 653 736 q 683 450 683 561 q 668 251 683 338 q 613 103 653 164 q 513 12 574 43 q 368 -19 453 -19 q 222 12 282 -19 q 123 103 163 43 q 68 251 83 164 q 53 450 53 338 q 57 576 53 519 q 73 678 61 632 q 104 763 85 725 q 153 833 124 800 m 279 172 q 368 121 306 121 q 426 135 401 121 q 465 187 450 150 q 488 288 481 224 q 496 450 496 351 q 488 613 496 549 q 465 713 481 676 q 426 765 450 750 q 368 779 401 779 q 310 765 335 779 q 271 713 286 750 q 248 613 256 676 q 240 450 240 549 q 279 172 240 233 z "},"1":{"ha":736,"x_min":60,"x_max":678,"o":"m 321 149 l 319 247 l 319 493 q 328 658 319 533 q 136 519 250 568 q 60 626 74 551 q 326 900 256 749 q 411 907 365 907 q 497 900 457 907 l 497 247 l 496 149 l 585 150 l 669 150 q 678 76 678 117 q 669 0 678 36 l 117 0 q 108 76 108 36 q 117 150 108 117 l 238 150 l 321 149 z "},"2":{"ha":736,"x_min":63,"x_max":669,"o":"m 669 156 q 645 38 669 78 q 551 -1 621 -1 l 129 -1 q 63 111 63 65 q 229 367 63 218 l 372 494 q 460 653 460 571 q 428 738 460 706 q 346 771 397 771 q 258 735 294 771 q 203 643 221 699 q 127 660 165 644 q 72 700 89 675 q 113 788 86 747 q 179 857 140 828 q 267 903 218 886 q 375 919 317 919 q 483 900 433 919 q 568 845 532 881 q 625 760 604 810 q 646 649 646 710 q 635 569 646 606 q 603 500 624 533 q 550 434 582 467 q 476 365 518 401 l 374 278 q 249 143 271 190 q 447 156 357 156 l 669 156 z "},"3":{"ha":736,"x_min":58,"x_max":671,"o":"m 600 713 l 475 582 q 429 543 453 560 q 528 519 483 539 q 604 466 572 500 q 653 383 636 432 q 671 269 671 333 q 645 152 671 206 q 576 60 619 99 q 473 1 532 22 q 346 -19 414 -19 q 58 76 168 -19 q 136 196 74 147 q 310 128 225 128 q 442 172 399 128 q 485 289 485 215 q 472 353 485 326 q 440 396 460 379 q 394 420 419 413 q 342 428 368 428 q 261 408 296 428 q 218 446 238 418 q 192 506 199 474 l 342 665 q 436 753 404 728 l 431 761 q 283 746 378 746 l 101 746 q 90 818 90 779 q 94 860 90 839 q 106 900 97 881 l 599 900 q 636 790 636 831 q 627 750 636 768 q 600 713 618 732 z "},"4":{"ha":736,"x_min":40,"x_max":697,"o":"m 565 175 l 567 88 l 567 0 q 477 -7 526 -7 q 390 0 428 -7 l 390 88 l 392 175 l 303 172 l 81 172 q 40 275 40 238 q 67 374 40 313 l 296 910 q 388 907 335 918 q 463 874 442 896 l 338 581 q 213 322 267 403 l 217 317 q 389 325 297 325 l 390 325 l 390 436 q 423 541 390 503 q 514 579 456 579 l 558 579 l 567 571 l 567 413 l 565 325 l 638 326 l 692 326 q 697 257 697 297 q 685 175 697 217 l 565 175 z "},"5":{"ha":736,"x_min":64,"x_max":665,"o":"m 289 747 l 278 585 q 375 600 328 600 q 496 579 442 600 q 588 521 550 558 q 645 429 625 483 q 665 308 665 375 q 640 168 665 229 q 568 65 615 107 q 460 2 521 24 q 333 -19 400 -19 q 64 74 167 -19 q 92 138 69 101 q 139 193 114 174 q 233 142 188 158 q 317 126 278 126 q 436 176 394 126 q 478 308 478 226 q 434 421 478 382 q 328 460 390 460 q 257 447 293 460 q 188 408 221 435 q 138 432 164 414 q 97 471 111 450 l 119 890 l 131 900 l 618 900 q 631 825 631 867 q 553 747 631 747 l 289 747 z "},"6":{"ha":736,"x_min":57,"x_max":683,"o":"m 150 78 q 129 104 138 96 l 107 146 q 68 283 79 207 q 57 449 57 360 q 82 646 57 558 q 154 794 107 733 q 269 887 201 854 q 425 919 338 919 q 640 874 553 919 q 579 747 635 789 q 439 776 510 776 q 246 536 258 776 q 439 603 329 603 q 616 528 549 603 q 683 303 683 453 q 660 169 683 229 q 596 68 638 110 q 497 3 554 26 q 369 -19 439 -19 q 150 78 231 -19 m 246 378 q 379 117 246 117 q 472 163 442 117 q 501 289 501 210 q 383 456 501 456 q 246 396 311 456 l 246 378 z "},"7":{"ha":736,"x_min":72,"x_max":682,"o":"m 89 900 l 649 900 q 682 792 682 828 q 656 718 682 756 l 606 646 q 456 368 508 507 q 386 57 403 229 l 382 0 q 292 -7 353 -7 q 196 0 231 -7 l 201 63 q 411 633 231 383 l 428 656 q 511 754 469 715 l 506 761 q 304 746 446 746 l 81 746 q 72 817 72 772 q 89 900 72 861 z "},"8":{"ha":736,"x_min":49,"x_max":688,"o":"m 49 228 q 92 364 49 303 q 204 464 136 425 q 71 678 71 544 q 94 774 71 729 q 157 850 117 818 q 251 901 197 882 q 369 919 306 919 q 488 902 433 919 q 581 853 542 885 q 641 778 619 822 q 663 682 663 735 q 531 485 663 558 q 688 238 688 397 q 662 130 688 178 q 592 49 636 82 q 487 -2 547 15 q 358 -19 426 -19 q 231 -3 288 -19 q 133 46 174 14 q 71 124 93 78 q 49 228 49 169 m 328 408 l 326 408 q 232 240 232 342 q 269 144 232 181 q 367 108 307 108 q 464 144 426 108 q 501 239 501 181 q 358 397 501 347 l 328 408 m 250 679 q 388 546 250 589 l 406 539 q 486 675 486 590 q 453 758 486 726 q 368 789 419 789 q 283 758 317 789 q 250 679 250 726 z "},"9":{"ha":736,"x_min":53,"x_max":679,"o":"m 586 822 q 635 742 622 772 q 658 665 647 711 q 674 563 668 618 q 679 451 679 507 q 655 257 679 344 q 583 108 631 169 q 468 14 536 47 q 311 -19 400 -19 q 96 26 183 -19 q 157 153 101 111 q 297 124 225 124 q 438 188 390 124 q 489 364 485 251 q 297 297 407 297 q 120 372 188 297 q 53 596 53 446 q 76 731 53 671 q 140 833 99 790 q 240 897 182 875 q 367 919 297 919 q 586 822 506 919 m 353 444 q 490 503 425 444 l 490 522 q 454 723 490 663 q 351 783 418 783 q 265 737 296 783 q 235 611 235 690 q 353 444 235 444 z "},"\r":{"ha":258,"x_min":0,"x_max":0,"o":""}," ":{"ha":306,"x_min":0,"x_max":0,"o":""},"!":{"ha":414,"x_min":99,"x_max":314,"o":"m 133 281 l 110 908 q 303 960 178 960 l 314 946 l 272 281 q 201 272 243 272 q 164 274 182 272 q 133 281 146 276 m 111 153 q 154 169 131 164 q 203 174 178 174 q 251 169 228 174 q 294 153 275 164 q 308 79 308 129 q 302 24 308 46 q 282 -2 296 1 q 248 -10 268 -6 q 203 -14 228 -14 q 149 -8 178 -14 q 115 3 121 -1 q 104 26 110 7 q 99 79 99 44 q 111 153 99 129 z "},"\"":{"ha":585,"x_min":61,"x_max":525,"o":"m 347 1063 q 432 1083 382 1083 q 515 1063 482 1083 q 525 999 525 1021 q 517 933 525 976 q 478 694 490 797 q 432 685 463 685 q 386 694 401 685 q 357 885 375 793 q 339 1002 339 976 q 347 1063 339 1028 m 69 1063 q 154 1083 104 1083 q 238 1063 204 1083 q 247 999 247 1021 q 239 933 247 976 q 200 694 213 797 q 154 685 185 685 q 108 694 124 685 q 79 885 97 793 q 61 1002 61 976 q 69 1063 61 1028 z "},"#":{"ha":949,"x_min":28,"x_max":926,"o":"m 621 715 l 663 896 q 745 908 693 908 q 824 896 797 908 l 782 715 l 915 715 q 926 642 926 683 q 915 569 926 600 l 750 569 l 699 344 l 844 344 q 844 199 871 271 l 667 199 l 626 18 q 544 4 596 4 q 465 18 492 4 l 506 199 l 336 199 l 296 18 q 215 4 267 4 q 135 18 163 4 l 175 199 l 39 199 q 28 271 28 229 q 39 344 28 313 l 207 344 l 258 569 l 110 569 q 110 715 83 642 l 290 715 l 332 896 q 414 908 363 908 q 493 896 465 908 l 451 715 l 621 715 m 419 569 l 368 344 l 538 344 l 589 569 l 419 569 z "},"$":{"ha":701,"x_min":38,"x_max":657,"o":"m 38 133 q 44 172 38 151 q 60 212 50 193 q 82 246 69 231 q 107 269 94 261 q 356 193 250 193 q 435 213 404 193 q 465 267 465 232 q 445 319 465 299 q 385 354 425 339 l 250 403 q 71 617 71 471 q 128 766 71 704 q 281 844 185 828 l 281 957 q 347 963 301 963 q 417 957 396 963 l 417 846 q 635 786 526 835 q 617 708 635 747 q 571 644 599 668 q 354 700 446 700 q 284 681 310 700 q 258 632 258 663 q 277 588 258 603 q 338 558 296 574 l 468 510 q 657 278 657 439 q 590 124 657 186 q 411 49 522 63 l 411 -56 q 342 -60 392 -60 q 275 -56 292 -60 l 275 51 q 38 133 131 69 z "},"%":{"ha":1319,"x_min":64,"x_max":1256,"o":"m 1185 508 q 1256 275 1256 438 q 1196 53 1256 125 q 1026 -18 1136 -18 q 858 51 919 -18 q 797 275 797 121 q 815 415 797 358 q 865 505 833 471 q 938 554 896 539 q 1026 569 979 569 q 1185 508 1124 569 m 975 428 q 961 401 967 415 q 952 367 956 386 q 948 322 949 347 q 947 261 947 296 q 951 198 947 228 q 963 146 954 168 q 986 110 971 124 q 1026 97 1001 97 q 1067 110 1051 97 q 1090 147 1082 124 q 1102 199 1099 169 q 1106 261 1106 229 q 1103 340 1106 304 q 1092 401 1100 375 q 1067 440 1083 426 q 1024 454 1050 454 q 975 428 996 454 m 451 906 q 522 672 522 836 q 463 450 522 521 q 294 379 403 379 q 203 394 246 379 q 130 443 161 408 q 81 533 99 478 q 64 672 64 589 q 82 812 64 756 q 131 902 100 868 q 204 951 163 936 q 293 967 246 967 q 451 906 390 967 m 242 825 q 228 798 233 813 q 219 764 222 783 q 215 719 215 744 q 214 658 214 693 q 217 595 214 625 q 229 543 221 565 q 253 508 238 521 q 293 494 268 494 q 333 508 318 494 q 357 544 349 521 q 369 597 365 567 q 372 658 372 626 q 369 737 372 701 q 358 798 367 772 q 333 838 350 824 q 290 851 317 851 q 242 825 263 851 m 310 0 l 833 949 q 928 957 871 957 q 1010 949 985 957 l 485 0 q 390 -8 449 -8 q 310 0 332 -8 z "},"&":{"ha":889,"x_min":63,"x_max":875,"o":"m 719 422 l 721 217 q 723 122 721 176 q 731 0 725 68 q 690 -9 711 -7 q 646 -11 669 -11 q 602 -9 624 -11 q 563 -1 581 -7 l 550 57 q 329 -19 457 -19 q 217 1 267 -19 q 133 58 167 22 q 81 140 99 93 q 63 238 63 186 q 76 334 63 290 q 115 413 90 378 q 172 471 139 447 q 242 507 204 494 q 141 585 179 529 q 103 717 103 642 q 124 819 103 772 q 184 899 144 865 q 280 950 224 932 q 406 968 336 968 q 675 924 546 968 q 664 848 675 882 q 628 785 653 814 q 522 813 569 804 q 438 822 475 822 q 328 790 363 822 q 294 703 294 757 q 449 578 294 578 l 711 578 q 851 601 793 578 q 875 517 875 574 q 757 422 875 422 l 719 422 m 542 336 q 542 385 542 364 q 543 422 542 407 l 433 422 q 299 379 344 422 q 253 265 253 336 q 287 159 253 194 q 379 124 321 124 q 542 183 474 124 l 542 336 z "},"'":{"ha":315,"x_min":58,"x_max":244,"o":"m 67 1063 q 152 1083 103 1083 q 235 1063 201 1083 q 244 999 244 1021 q 236 933 244 976 q 197 694 210 797 q 151 685 182 685 q 106 694 121 685 q 76 885 94 793 q 58 1002 58 976 q 67 1063 58 1028 z "},"(":{"ha":492,"x_min":83,"x_max":467,"o":"m 467 -167 q 361 -262 436 -237 q 244 -116 296 -199 q 156 60 192 -33 q 102 253 121 154 q 83 449 83 353 q 102 644 83 544 q 157 838 121 744 q 244 1015 193 932 q 361 1161 296 1099 q 467 1065 436 1136 q 323 774 371 935 q 275 449 275 613 q 323 125 275 286 q 467 -167 371 -36 z "},")":{"ha":492,"x_min":25,"x_max":408,"o":"m 25 1065 q 131 1161 56 1136 q 248 1015 196 1099 q 335 838 300 932 q 390 644 371 743 q 408 449 408 544 q 389 254 408 354 q 335 60 369 154 q 247 -117 300 -33 q 131 -262 194 -200 q 25 -167 56 -237 q 169 125 121 -36 q 217 449 217 286 q 169 774 217 613 q 25 1065 121 935 z "},"*":{"ha":713,"x_min":53,"x_max":658,"o":"m 56 742 q 68 817 53 771 q 103 885 83 864 l 181 857 q 314 779 232 838 q 283 931 285 885 l 281 1014 q 356 1025 307 1025 q 431 1014 404 1025 l 428 931 q 397 781 425 890 q 531 854 472 833 l 610 883 q 643 817 628 863 q 657 742 658 771 l 575 718 q 424 701 529 704 q 535 597 506 633 l 586 532 q 533 479 572 508 q 465 443 494 450 l 419 513 q 356 650 394 550 q 292 514 324 561 l 246 444 q 178 478 218 450 q 124 532 139 507 l 175 597 q 288 701 204 636 q 136 719 188 704 l 56 742 z "},"+":{"ha":736,"x_min":68,"x_max":668,"o":"m 290 485 l 289 568 l 289 711 q 368 718 322 718 q 447 711 414 718 l 447 568 l 446 485 l 528 486 l 661 486 q 668 408 668 442 q 661 338 668 375 l 528 338 l 446 339 l 447 258 l 447 114 q 368 107 414 107 q 289 114 322 107 l 289 258 l 290 339 l 208 338 l 75 338 q 68 411 68 365 q 75 486 68 457 l 208 486 l 290 485 z "},",":{"ha":393,"x_min":36,"x_max":310,"o":"m 293 161 q 310 60 310 121 q 294 -35 310 11 q 251 -120 279 -81 q 180 -190 222 -160 q 83 -237 138 -221 q 49 -206 61 -226 q 38 -151 36 -185 q 122 -95 88 -132 q 161 -11 156 -58 q 99 17 111 -4 q 88 86 88 38 q 93 138 88 121 q 108 163 99 154 q 147 178 118 172 q 201 183 176 183 q 293 161 263 183 z "},"-":{"ha":506,"x_min":60,"x_max":444,"o":"m 436 297 l 68 297 q 60 372 60 328 q 68 447 60 417 l 436 447 q 444 372 444 417 q 436 297 444 328 z "},".":{"ha":382,"x_min":79,"x_max":303,"o":"m 93 8 q 83 44 86 24 q 79 85 79 64 q 83 127 79 107 q 93 163 86 147 q 190 185 138 185 q 289 163 244 185 q 303 85 303 131 q 289 8 303 40 q 192 -14 254 -14 q 93 8 129 -14 z "},"/":{"ha":607,"x_min":6,"x_max":599,"o":"m 6 -101 l 443 1063 q 599 1003 535 1053 l 161 -160 q 6 -101 71 -153 z "},":":{"ha":392,"x_min":83,"x_max":307,"o":"m 97 8 q 87 44 90 24 q 83 85 83 64 q 87 127 83 107 q 97 163 90 147 q 194 185 142 185 q 293 163 249 185 q 307 85 307 131 q 293 8 307 40 q 196 -14 258 -14 q 97 8 133 -14 m 97 451 q 87 487 90 467 q 83 528 83 507 q 87 570 83 550 q 97 606 90 590 q 194 628 142 628 q 293 606 249 628 q 307 528 307 574 q 293 451 307 483 q 196 429 258 429 q 97 451 133 429 z "},";":{"ha":397,"x_min":35,"x_max":310,"o":"m 292 161 q 308 60 308 121 q 293 -35 308 11 q 249 -120 278 -81 q 178 -190 221 -160 q 82 -237 136 -221 q 47 -206 60 -226 q 36 -151 35 -185 q 120 -95 86 -132 q 160 -11 154 -58 q 98 17 110 -4 q 86 86 86 38 q 92 142 86 121 q 113 169 97 163 q 152 179 129 175 q 200 183 175 183 q 292 161 261 183 m 100 451 q 90 487 93 467 q 86 528 86 507 q 90 570 86 550 q 100 606 93 590 q 197 628 144 628 q 296 606 251 628 q 310 528 310 574 q 296 451 310 483 q 199 429 261 429 q 100 451 136 429 z "},"<":{"ha":736,"x_min":54,"x_max":658,"o":"m 72 481 l 575 757 q 633 699 608 738 q 658 617 657 660 l 368 465 q 257 417 326 442 l 257 406 q 368 358 321 382 l 658 207 q 631 123 654 164 q 575 64 607 82 l 72 340 q 72 481 54 419 z "},"=":{"ha":736,"x_min":68,"x_max":668,"o":"m 661 192 l 75 192 q 68 267 68 222 q 75 342 68 311 l 661 342 q 668 266 668 310 q 661 192 668 222 m 661 485 l 75 485 q 68 559 68 515 q 75 635 68 603 l 661 635 q 668 560 668 603 q 661 485 668 517 z "},">":{"ha":736,"x_min":78,"x_max":682,"o":"m 664 342 l 160 65 q 103 125 126 86 q 78 207 79 164 l 368 358 q 479 407 426 388 l 479 417 q 368 465 426 436 l 78 617 q 105 700 81 660 q 161 760 129 740 l 664 482 q 664 342 682 406 z "},"?":{"ha":568,"x_min":8,"x_max":557,"o":"m 8 893 q 276 968 142 968 q 485 902 414 968 q 557 724 557 836 q 376 450 557 546 l 290 404 l 278 282 q 245 274 263 276 q 210 272 228 272 q 173 274 190 272 q 140 282 156 276 l 131 489 l 144 507 l 217 542 q 365 704 365 613 q 336 780 365 749 q 247 811 307 811 q 170 799 214 811 q 74 761 126 788 q 49 786 61 771 q 28 819 38 801 q 14 857 19 838 q 8 893 8 876 m 119 150 q 210 171 153 171 q 258 166 235 171 q 293 155 281 161 q 310 129 306 149 q 315 76 315 110 q 310 22 315 42 q 290 -3 304 1 q 255 -12 275 -8 q 210 -17 235 -17 q 158 -11 185 -17 q 124 -1 131 -6 q 111 24 117 4 q 106 76 106 43 q 119 150 106 126 z "},"@":{"ha":1340,"x_min":61,"x_max":1289,"o":"m 944 572 l 943 224 q 993 140 943 140 q 1078 205 1044 140 q 1111 413 1111 269 q 1081 578 1111 504 q 997 703 1051 651 q 863 784 942 756 q 686 813 783 813 q 508 775 589 813 q 367 671 426 738 q 276 512 308 604 q 243 311 243 419 q 271 119 243 203 q 350 -20 299 36 q 476 -105 401 -76 q 643 -133 550 -133 q 921 -81 788 -133 q 967 -206 967 -131 q 631 -272 806 -272 q 398 -235 503 -272 q 218 -124 293 -197 q 102 56 143 -51 q 61 306 61 164 q 109 565 61 447 q 241 767 157 682 q 439 900 325 853 q 686 947 553 947 q 931 910 819 947 q 1121 802 1042 872 q 1244 632 1200 732 q 1289 407 1289 532 q 1265 236 1289 311 q 1200 110 1240 161 q 1106 33 1160 60 q 993 7 1053 7 q 813 89 874 7 q 618 1 722 1 q 455 87 513 1 q 397 322 397 172 q 417 462 397 397 q 474 573 436 526 q 565 646 511 619 q 689 672 619 672 q 833 643 764 672 q 944 572 901 614 m 661 139 q 774 201 717 139 l 774 511 q 689 543 738 543 q 571 322 571 543 q 661 139 571 139 z "},"A":{"ha":868,"x_min":19,"x_max":849,"o":"m 592 215 l 524 214 l 329 214 l 261 215 l 196 -1 q 113 -8 167 -8 q 26 4 60 -8 l 19 14 l 329 949 q 440 956 381 956 q 544 947 500 956 l 849 13 q 752 -11 808 -11 q 672 10 696 -11 q 631 89 647 31 l 592 215 m 307 363 l 369 364 l 489 364 l 547 363 l 506 504 q 431 774 458 663 l 422 774 q 361 539 410 714 l 307 363 z "},"B":{"ha":847,"x_min":115,"x_max":789,"o":"m 125 950 q 309 954 233 953 q 429 956 385 956 q 663 891 581 956 q 744 704 744 826 q 710 588 744 640 q 617 511 675 535 q 683 477 651 500 q 739 422 715 454 q 776 350 763 389 q 789 269 789 311 q 701 65 789 136 q 450 -7 614 -7 q 318 -6 399 -7 q 125 -1 238 -4 l 115 7 l 115 942 l 125 950 m 436 429 l 300 429 l 300 126 q 360 127 326 128 q 426 128 393 126 q 491 134 460 129 q 547 157 522 139 q 585 204 571 175 q 600 279 600 233 q 590 335 600 308 q 561 383 581 363 q 510 417 542 404 q 436 429 479 429 m 300 821 l 300 567 l 421 567 q 560 694 560 567 q 540 774 560 747 q 483 810 519 800 q 399 819 447 819 q 300 821 351 818 z "},"C":{"ha":842,"x_min":58,"x_max":799,"o":"m 619 594 l 619 608 q 610 692 619 654 q 579 759 600 731 q 526 803 558 788 q 447 819 493 819 q 300 728 346 819 q 254 453 254 638 q 310 224 254 306 q 464 143 367 143 q 576 167 515 143 q 706 244 636 192 q 761 190 735 225 q 794 124 788 156 q 723 67 764 93 q 635 22 682 42 q 536 -8 588 3 q 433 -19 485 -19 q 260 20 331 -19 q 144 127 189 60 q 78 283 99 194 q 58 471 58 372 q 89 690 58 596 q 172 845 119 783 q 294 938 224 907 q 443 969 364 969 q 591 947 525 969 q 703 887 657 925 q 774 798 749 849 q 799 689 799 747 q 693 585 799 585 q 660 587 678 585 q 619 594 642 589 z "},"D":{"ha":914,"x_min":115,"x_max":853,"o":"m 701 63 q 588 10 660 26 q 442 -7 517 -7 q 326 -6 404 -7 q 125 -1 247 -4 l 115 7 l 115 942 l 125 950 q 287 954 206 953 q 453 956 368 956 q 647 918 569 956 q 769 815 724 881 q 834 661 815 749 q 853 474 853 574 q 822 234 853 335 q 701 63 790 133 m 625 697 q 453 808 583 808 q 367 808 404 808 q 301 810 329 808 l 301 139 q 362 140 328 140 q 431 142 396 140 q 495 147 465 143 q 544 161 525 151 q 603 213 581 181 q 639 288 626 246 q 656 380 651 331 q 661 482 661 429 q 653 593 661 542 q 625 697 646 644 z "},"E":{"ha":792,"x_min":114,"x_max":735,"o":"m 299 238 l 297 151 l 394 154 l 735 154 q 731 86 735 110 q 611 -3 715 -3 l 221 -3 q 142 27 171 -3 q 114 108 114 57 l 114 939 l 124 949 l 703 949 q 710 874 710 914 q 694 792 710 835 l 297 792 l 299 696 l 299 553 l 389 554 l 624 554 q 635 478 635 522 q 624 401 635 433 l 299 401 l 299 238 z "},"F":{"ha":735,"x_min":115,"x_max":706,"o":"m 301 0 q 209 -7 264 -7 q 115 0 154 -7 l 115 940 l 125 949 l 697 949 q 706 874 706 917 q 681 810 706 831 q 604 790 657 790 l 300 790 l 301 656 l 301 551 l 618 551 q 628 476 628 521 q 618 397 628 431 l 301 397 l 301 0 z "},"G":{"ha":901,"x_min":58,"x_max":822,"o":"m 479 519 l 694 521 q 822 403 822 521 l 822 39 q 460 -19 657 -19 q 284 15 360 -19 q 158 114 208 50 q 83 268 108 178 q 58 468 58 358 q 94 690 58 596 q 190 847 131 785 q 328 938 250 908 q 493 968 407 968 q 819 868 671 968 q 790 790 815 828 q 733 732 764 751 q 500 811 622 811 q 250 471 250 811 q 499 131 250 131 q 646 147 575 131 l 646 271 q 647 324 646 301 q 649 363 647 347 l 554 363 q 485 382 506 363 q 465 444 465 401 q 479 519 465 481 z "},"H":{"ha":946,"x_min":115,"x_max":831,"o":"m 644 567 l 643 669 l 643 949 q 735 956 679 956 q 831 949 792 956 l 831 0 q 735 -7 790 -7 q 643 0 681 -7 l 643 310 l 644 413 l 571 411 l 375 411 l 300 413 l 301 310 l 301 0 q 208 -7 265 -7 q 115 0 151 -7 l 115 949 q 208 956 151 956 q 301 949 265 956 l 301 669 l 300 567 l 375 568 l 571 568 l 644 567 z "},"I":{"ha":425,"x_min":119,"x_max":306,"o":"m 119 0 l 119 949 q 210 956 154 956 q 306 949 267 956 l 306 0 q 210 -7 267 -7 q 119 0 154 -7 z "},"J":{"ha":639,"x_min":14,"x_max":539,"o":"m 81 185 q 224 140 154 140 q 324 187 294 140 q 353 335 353 233 l 353 949 q 446 956 392 956 q 539 949 500 956 l 539 356 q 526 204 539 272 q 478 87 513 136 q 385 12 443 38 q 235 -14 326 -14 q 14 46 111 -14 q 81 185 28 124 z "},"K":{"ha":846,"x_min":115,"x_max":831,"o":"m 831 47 q 706 -11 792 -11 q 633 14 657 -11 q 589 99 608 39 l 525 281 q 467 383 500 353 q 379 413 435 413 q 301 410 365 413 l 301 0 q 208 -7 265 -7 q 115 0 151 -7 l 115 949 q 208 956 151 956 q 301 949 265 956 l 301 567 l 357 568 q 390 577 379 568 q 415 611 401 586 l 569 886 q 611 940 590 924 q 669 956 632 956 q 782 950 707 956 l 793 936 l 604 599 q 536 513 572 542 q 636 459 601 499 q 697 349 671 419 l 763 163 q 774 133 772 138 q 783 111 776 128 q 814 63 803 72 q 831 47 825 53 z "},"L":{"ha":718,"x_min":114,"x_max":686,"o":"m 428 158 l 686 158 q 681 88 686 117 q 560 -3 665 -3 l 222 -3 q 143 27 172 -3 q 114 108 114 57 l 114 947 l 124 957 l 193 957 q 275 928 249 957 q 301 838 301 900 l 301 153 q 428 158 361 158 z "},"M":{"ha":1140,"x_min":89,"x_max":1051,"o":"m 89 3 l 163 947 q 285 957 219 957 q 406 947 351 957 l 513 563 q 565 325 556 390 l 575 325 q 628 563 585 390 l 733 947 q 856 957 792 957 q 978 947 919 957 l 1051 3 q 962 -7 1014 -7 q 875 -1 910 -7 l 849 444 q 838 746 838 617 l 828 746 l 665 142 q 570 135 619 135 q 475 142 521 135 l 313 746 l 303 746 q 292 444 300 575 l 265 -1 q 178 -7 231 -7 q 89 3 126 -7 z "},"N":{"ha":956,"x_min":115,"x_max":840,"o":"m 831 957 l 840 947 l 840 3 q 732 -7 797 -7 q 618 0 667 -7 l 363 538 q 279 732 307 660 l 274 731 q 289 353 289 535 l 289 0 q 201 -7 250 -7 q 115 0 151 -7 l 115 946 q 221 956 156 956 q 335 949 286 956 l 588 411 l 678 206 l 682 207 q 668 588 668 408 l 668 842 q 692 931 668 904 q 771 957 715 957 l 831 957 z "},"O":{"ha":919,"x_min":58,"x_max":861,"o":"m 665 474 q 460 822 665 822 q 254 474 254 822 q 460 126 254 126 q 665 474 665 126 m 207 65 q 58 474 58 193 q 85 683 58 592 q 165 838 113 775 q 291 935 217 901 q 461 968 365 968 q 630 935 556 968 q 756 838 704 901 q 834 683 807 775 q 861 474 861 590 q 834 265 861 357 q 756 110 807 174 q 630 14 704 47 q 461 -19 556 -19 q 207 65 310 -19 z "},"P":{"ha":804,"x_min":115,"x_max":758,"o":"m 429 315 l 301 315 l 301 0 q 208 -7 263 -7 q 115 0 154 -7 l 115 942 l 125 950 q 313 954 238 953 q 429 956 389 956 q 669 874 579 956 q 758 636 758 792 q 735 499 758 558 q 668 399 711 439 q 565 337 625 358 q 429 315 504 315 m 301 811 l 301 457 q 394 458 356 458 q 459 463 432 458 q 505 481 486 468 q 539 521 524 494 q 560 574 553 544 q 567 635 567 604 q 560 698 567 667 q 536 754 553 729 q 492 794 519 779 q 422 810 464 810 q 352 810 382 810 q 301 811 322 810 z "},"Q":{"ha":919,"x_min":58,"x_max":865,"o":"m 617 -143 l 464 -19 q 288 15 363 -19 q 162 112 213 49 q 85 267 111 175 q 58 475 58 358 q 85 683 58 592 q 162 838 111 774 q 287 935 213 901 q 457 968 361 968 q 629 935 554 968 q 756 838 704 901 q 833 683 807 775 q 858 474 858 592 q 805 193 858 307 q 657 39 751 79 l 690 15 q 865 -56 790 -57 q 829 -154 865 -118 q 736 -190 793 -190 q 677 -179 708 -190 q 617 -143 646 -168 m 458 822 q 251 475 251 822 q 458 128 251 128 q 665 475 665 128 q 458 822 665 822 z "},"R":{"ha":844,"x_min":115,"x_max":814,"o":"m 768 663 q 755 576 768 617 q 718 502 742 535 q 663 445 694 469 q 594 408 632 421 q 655 365 631 396 q 697 286 679 335 l 749 146 q 776 86 761 111 q 814 44 792 61 q 762 4 796 19 q 685 -11 728 -11 q 618 14 643 -11 q 572 99 593 39 l 514 264 q 468 338 496 313 q 385 364 440 364 l 300 364 l 300 0 q 257 -5 281 -3 q 206 -7 233 -7 q 115 0 154 -7 l 115 942 l 125 950 q 316 954 238 953 q 442 956 394 956 q 680 881 592 956 q 768 663 768 806 m 300 814 l 300 508 q 428 513 372 513 q 576 663 576 513 q 428 813 576 813 q 353 813 385 813 q 300 814 322 813 z "},"S":{"ha":772,"x_min":31,"x_max":726,"o":"m 31 83 q 56 162 35 122 q 106 225 78 201 q 386 133 249 133 q 492 165 453 133 q 531 243 531 196 q 424 369 528 324 l 260 439 q 114 542 163 479 q 65 688 65 606 q 90 801 65 750 q 159 890 114 853 q 266 947 204 926 q 403 968 328 968 q 703 892 556 968 q 638 750 699 807 q 393 817 497 817 q 291 786 326 817 q 256 711 256 756 q 354 606 256 647 l 518 536 q 672 426 618 494 q 726 269 726 358 q 704 153 726 207 q 637 62 682 100 q 524 2 592 24 q 365 -19 457 -19 q 31 83 188 -19 z "},"T":{"ha":696,"x_min":11,"x_max":692,"o":"m 442 794 l 443 692 l 443 0 q 349 -7 403 -7 q 256 0 296 -7 l 256 692 l 257 794 l 172 793 l 18 793 q 11 871 11 828 q 18 949 11 914 l 682 949 q 692 873 692 914 q 668 813 692 832 q 592 793 644 793 l 526 793 l 442 794 l 442 794 z "},"U":{"ha":932,"x_min":103,"x_max":829,"o":"m 829 949 l 829 342 q 734 74 829 168 q 465 -19 639 -19 q 198 74 293 -19 q 103 342 103 168 l 103 947 l 111 957 l 181 957 q 263 928 236 957 q 289 838 289 900 l 289 340 q 465 129 289 129 q 643 340 643 129 l 643 949 q 736 956 682 956 q 829 949 790 956 z "},"V":{"ha":821,"x_min":19,"x_max":804,"o":"m 428 160 l 629 949 q 707 956 656 956 q 796 943 758 956 l 804 932 l 536 0 q 409 -7 481 -7 q 307 10 338 -7 q 263 79 276 28 l 19 932 q 128 960 82 960 q 197 938 174 960 q 233 868 221 917 l 358 421 q 415 175 388 314 q 428 160 418 160 z "},"W":{"ha":1219,"x_min":31,"x_max":1186,"o":"m 200 79 l 31 938 q 129 960 79 960 q 201 938 179 960 q 233 858 224 917 l 306 444 q 342 215 336 269 q 349 158 347 160 q 360 156 351 156 l 492 929 q 614 939 544 939 q 732 929 683 939 l 853 172 q 867 156 856 156 q 913 447 881 274 l 1004 949 q 1089 956 1039 956 q 1176 943 1139 956 l 1186 932 l 994 1 q 857 -7 931 -7 q 755 10 783 -7 q 719 79 726 26 l 663 414 q 615 746 631 607 l 604 746 q 551 414 586 610 l 478 1 q 340 -7 411 -7 q 240 10 269 -7 q 200 79 211 26 z "},"X":{"ha":836,"x_min":18,"x_max":818,"o":"m 610 949 q 691 956 640 956 q 785 940 742 956 l 789 929 l 525 499 l 818 29 q 692 -12 758 -12 q 576 63 625 -12 l 404 339 l 201 0 q 119 -7 169 -7 q 24 8 69 -7 l 18 19 l 310 493 l 46 919 q 172 961 106 961 q 285 888 238 961 l 431 651 l 610 949 z "},"Y":{"ha":726,"x_min":4,"x_max":724,"o":"m 439 674 l 549 949 q 629 956 581 956 q 717 943 678 956 l 724 932 l 457 296 l 457 0 q 364 -7 421 -7 q 271 0 307 -7 l 271 301 l 4 926 q 110 960 63 960 q 179 942 157 960 q 218 882 201 924 l 306 668 q 365 482 342 574 l 374 482 q 439 674 396 563 z "},"Z":{"ha":793,"x_min":58,"x_max":735,"o":"m 82 188 l 411 661 q 522 801 461 732 l 518 806 q 303 794 429 794 l 92 794 q 85 861 85 822 q 97 949 85 900 l 692 949 q 718 827 718 858 q 696 764 718 796 l 368 292 q 258 153 314 217 l 263 149 q 451 157 382 157 l 561 157 q 721 186 658 157 q 735 99 735 147 q 701 26 735 51 q 610 0 668 0 l 81 0 q 58 122 58 93 q 82 188 58 151 z "},"[":{"ha":514,"x_min":138,"x_max":469,"o":"m 464 -207 l 149 -218 l 138 -208 l 138 1132 l 149 1142 l 464 1131 q 469 1074 469 1113 q 456 1004 469 1035 l 315 1000 l 315 -76 l 456 -81 q 469 -150 469 -111 q 464 -207 469 -189 z "},"\\":{"ha":607,"x_min":8,"x_max":601,"o":"m 446 -160 l 8 1003 q 164 1063 72 1053 l 601 -101 q 446 -160 539 -150 z "},"]":{"ha":514,"x_min":44,"x_max":376,"o":"m 365 -218 l 51 -207 q 44 -154 44 -189 q 58 -81 44 -119 l 199 -76 l 199 1000 l 58 1004 q 44 1078 44 1042 q 51 1131 44 1114 l 365 1142 l 376 1132 l 376 -208 l 365 -218 z "},"^":{"ha":736,"x_min":50,"x_max":686,"o":"m 465 900 l 686 425 q 600 416 654 417 q 511 425 546 415 l 422 628 q 374 761 421 629 l 363 761 q 314 628 315 632 l 225 425 q 136 416 190 415 q 50 425 82 417 l 271 900 q 368 908 303 908 q 465 900 433 908 z "},"_":{"ha":761,"x_min":-8,"x_max":769,"o":"m 763 -231 l -1 -231 q -8 -162 -8 -203 q -1 -93 -8 -122 l 763 -93 q 769 -162 769 -122 q 763 -231 769 -203 z "},"`":{"ha":553,"x_min":81,"x_max":404,"o":"m 197 1049 l 404 821 q 373 776 394 796 q 328 749 351 756 l 81 938 q 126 1004 92 972 q 197 1049 161 1036 z "},"a":{"ha":708,"x_min":50,"x_max":657,"o":"m 657 83 q 632 31 650 58 q 596 -11 614 3 q 464 68 506 0 q 267 -19 374 -19 q 172 -2 213 -19 q 103 44 131 15 q 63 111 76 74 q 50 189 50 149 q 70 291 50 247 q 127 364 90 335 q 213 408 164 393 q 321 424 263 424 q 438 419 396 424 l 438 457 q 335 563 438 563 q 124 514 265 563 q 76 643 85 557 q 381 706 224 706 q 551 647 485 706 q 618 471 618 589 l 618 186 q 657 83 618 113 m 307 118 q 438 179 376 118 l 438 300 q 394 303 415 301 q 354 304 374 304 q 261 281 293 304 q 229 206 229 258 q 250 141 229 164 q 307 118 271 118 z "},"b":{"ha":738,"x_min":96,"x_max":688,"o":"m 96 35 l 96 1013 l 104 1022 l 172 1022 q 249 997 226 1022 q 272 910 272 972 l 272 644 q 444 703 349 703 q 626 606 564 703 q 688 339 688 508 q 663 195 688 260 q 596 85 639 131 q 492 14 553 39 q 360 -11 432 -11 q 96 35 214 -11 m 394 554 q 329 540 358 554 q 272 493 300 525 l 272 132 q 360 121 319 121 q 465 180 428 121 q 501 351 501 239 q 394 554 501 554 z "},"c":{"ha":657,"x_min":51,"x_max":614,"o":"m 450 403 q 430 529 450 486 q 349 572 410 572 q 238 342 238 572 q 269 176 238 228 q 372 125 301 125 q 450 140 408 125 q 536 189 492 156 q 580 144 558 175 q 607 85 601 113 q 491 9 560 38 q 347 -19 422 -19 q 126 80 201 -19 q 51 353 51 179 q 76 508 51 442 q 142 619 100 575 q 237 686 183 664 q 349 708 290 708 q 459 691 410 708 q 542 644 508 674 q 595 574 576 614 q 614 489 614 533 q 591 420 614 444 q 522 396 568 396 q 450 403 481 396 z "},"d":{"ha":742,"x_min":53,"x_max":683,"o":"m 325 703 q 467 665 392 703 l 467 1013 l 476 1022 l 546 1022 q 622 997 600 1022 q 644 910 644 972 l 644 199 q 683 83 644 114 q 660 31 678 58 q 624 -11 643 3 q 493 71 533 -3 q 294 -19 411 -19 q 190 6 235 -19 q 114 78 144 32 q 68 192 83 125 q 53 342 53 258 q 74 493 53 426 q 133 606 96 560 q 219 678 169 653 q 325 703 268 703 m 342 129 q 467 199 414 129 l 467 524 q 408 553 436 543 q 357 564 381 564 q 270 507 303 564 q 238 339 238 450 q 267 180 238 231 q 342 129 296 129 z "},"e":{"ha":692,"x_min":51,"x_max":635,"o":"m 619 286 l 236 286 q 272 166 240 210 q 381 122 303 122 q 565 169 461 122 q 617 60 606 128 q 350 -19 506 -19 q 127 72 203 -19 q 51 342 51 163 q 71 492 51 425 q 128 608 90 560 q 219 682 165 656 q 343 708 274 708 q 468 687 414 708 q 560 626 522 665 q 616 532 597 586 q 635 414 635 478 q 631 348 635 379 q 619 286 626 317 m 351 578 q 235 414 243 578 l 465 414 l 465 431 q 438 538 465 497 q 351 578 410 578 z "},"f":{"ha":481,"x_min":4,"x_max":539,"o":"m 131 0 l 131 561 l 11 560 q 6 593 7 576 q 4 625 4 610 q 6 656 4 640 q 11 690 7 672 l 122 689 q 114 797 114 761 q 131 890 114 847 q 178 963 147 932 q 249 1010 208 993 q 339 1028 290 1028 q 539 992 438 1028 q 499 871 539 915 q 385 890 421 890 q 288 785 288 890 q 296 688 288 738 l 485 690 q 490 656 488 672 q 492 625 492 640 q 490 593 492 610 q 485 560 488 576 l 308 563 l 308 0 q 263 -6 285 -4 q 219 -7 242 -7 q 176 -6 197 -7 q 131 0 154 -4 z "},"g":{"ha":739,"x_min":53,"x_max":685,"o":"m 510 640 q 625 700 549 692 q 663 658 644 686 q 685 607 681 631 q 646 492 646 574 l 646 104 q 626 -96 646 -17 q 568 -222 607 -175 q 470 -288 529 -269 q 332 -307 411 -307 q 81 -260 193 -307 q 94 -187 81 -226 q 126 -126 107 -149 q 314 -169 214 -169 q 469 -4 469 -169 l 469 50 q 299 -12 390 -12 q 115 83 176 -12 q 53 347 53 179 q 74 499 53 432 q 133 612 96 565 q 218 683 169 658 q 322 708 267 708 q 510 640 436 708 m 469 199 l 469 514 q 354 569 410 569 q 268 511 299 569 q 238 344 238 453 q 266 185 238 236 q 340 135 294 135 q 469 199 414 135 z "},"h":{"ha":754,"x_min":96,"x_max":693,"o":"m 664 464 l 664 161 q 693 29 664 72 q 586 -10 649 -10 q 504 17 526 -10 q 482 103 482 44 l 482 426 q 467 514 482 489 q 410 539 451 539 q 272 472 336 539 l 272 0 q 230 -6 251 -4 q 185 -7 208 -7 q 140 -6 163 -7 q 96 0 118 -4 l 96 1013 l 104 1022 l 175 1022 q 251 997 229 1022 q 272 910 272 972 l 272 617 q 468 701 369 701 q 616 637 568 701 q 664 464 664 572 z "},"i":{"ha":396,"x_min":32,"x_max":303,"o":"m 303 549 l 303 0 q 259 -6 282 -4 q 213 -7 236 -7 q 166 -6 189 -7 q 121 0 143 -4 l 121 483 q 58 560 121 560 l 40 560 q 32 624 32 590 q 40 688 32 654 q 99 692 72 690 q 146 694 126 694 l 169 694 q 267 656 232 694 q 303 549 303 617 m 93 957 q 185 975 125 975 q 241 969 219 975 q 272 956 263 964 q 285 928 282 949 q 288 885 288 907 q 270 807 283 814 q 183 793 257 800 q 92 814 106 796 q 79 885 79 832 q 93 957 79 925 z "},"j":{"ha":406,"x_min":26,"x_max":311,"o":"m 311 549 l 311 33 q 302 -99 311 -43 q 267 -196 293 -156 q 196 -262 242 -236 q 76 -306 150 -289 q 26 -194 31 -267 q 77 -166 57 -181 q 110 -131 97 -151 q 128 -85 122 -111 q 133 -24 133 -60 l 133 483 q 69 560 133 560 l 39 560 q 31 624 31 590 q 39 688 31 654 q 104 692 75 690 q 157 694 133 694 l 182 694 q 276 656 242 694 q 311 549 311 617 m 100 957 q 192 975 132 975 q 247 969 226 975 q 278 956 268 964 q 291 927 288 947 q 294 885 294 907 q 271 804 288 811 q 190 793 254 797 q 101 813 115 796 q 86 885 86 831 q 100 957 86 925 z "},"k":{"ha":713,"x_min":96,"x_max":696,"o":"m 589 268 l 629 160 q 696 46 660 72 q 574 -10 647 -10 q 511 10 532 -10 q 472 79 490 31 l 425 207 q 385 271 407 254 q 335 288 364 288 q 272 285 306 288 l 272 0 q 184 -7 231 -7 q 96 0 138 -7 l 96 1013 l 104 1022 l 175 1022 q 251 997 229 1022 q 272 910 272 971 l 272 436 l 307 438 q 343 460 331 438 l 439 625 q 547 694 476 694 q 647 692 581 694 l 656 681 l 526 458 q 468 390 504 415 q 589 268 553 363 z "},"l":{"ha":422,"x_min":93,"x_max":388,"o":"m 329 133 l 372 133 q 388 58 388 94 q 383 6 388 22 q 249 -7 299 -7 q 131 34 168 -7 q 93 163 93 75 l 93 1013 l 103 1022 l 172 1022 q 249 997 226 1022 q 271 910 271 971 l 271 197 q 329 133 271 133 z "},"m":{"ha":1115,"x_min":96,"x_max":1054,"o":"m 469 426 q 397 539 469 539 q 276 474 338 536 l 276 0 q 186 -7 235 -7 q 96 0 138 -7 l 96 688 l 104 697 l 172 697 q 272 611 254 697 q 465 701 369 701 q 626 601 579 701 q 843 701 733 701 q 978 641 932 701 q 1025 483 1025 581 l 1025 161 q 1054 29 1025 72 q 947 -10 1006 -10 q 865 18 888 -10 q 843 103 843 46 l 843 428 q 769 539 843 539 q 650 472 714 539 l 650 0 q 560 -7 608 -7 q 469 0 511 -7 l 469 426 z "},"n":{"ha":758,"x_min":96,"x_max":697,"o":"m 668 464 l 668 161 q 697 29 668 72 q 590 -10 653 -10 q 508 17 531 -10 q 486 103 486 44 l 486 426 q 471 514 486 489 q 414 539 456 539 q 276 472 340 539 l 276 0 q 233 -6 256 -4 q 186 -7 210 -7 q 140 -6 163 -7 q 96 0 117 -4 l 96 688 l 104 697 l 174 697 q 271 614 251 697 q 472 701 372 701 q 620 637 572 701 q 668 464 668 572 z "},"o":{"ha":724,"x_min":51,"x_max":672,"o":"m 574 631 q 672 344 672 532 q 651 194 672 261 q 591 79 631 126 q 493 6 551 32 q 361 -19 435 -19 q 230 6 288 -19 q 133 79 172 32 q 72 194 93 126 q 51 344 51 261 q 132 610 51 513 q 361 708 213 708 q 574 631 492 708 m 361 572 q 238 344 238 572 q 361 118 238 118 q 486 344 486 118 q 361 572 486 572 z "},"p":{"ha":742,"x_min":96,"x_max":689,"o":"m 417 -12 q 274 25 344 -12 l 274 -187 q 251 -275 274 -250 q 175 -300 229 -300 l 104 -300 l 96 -290 l 96 688 l 104 697 l 156 697 q 258 629 229 697 q 450 708 338 708 q 626 612 564 708 q 689 347 689 515 q 667 197 689 264 q 609 84 646 131 q 523 13 572 38 q 417 -12 474 -12 m 400 561 q 274 489 325 561 l 274 167 q 385 126 335 126 q 474 185 443 126 q 504 351 504 244 q 475 510 504 460 q 400 561 446 561 z "},"q":{"ha":742,"x_min":53,"x_max":685,"o":"m 468 -187 l 468 49 q 299 -12 390 -12 q 115 83 176 -12 q 53 347 53 179 q 74 499 53 432 q 133 612 96 565 q 218 683 169 658 q 322 708 267 708 q 510 642 432 708 q 624 700 550 692 q 660 658 642 686 q 685 607 678 631 q 646 492 646 576 l 646 -290 l 636 -300 l 567 -300 q 490 -275 513 -300 q 468 -187 468 -250 m 340 135 q 468 197 411 135 l 468 515 q 356 569 410 569 q 269 512 300 569 q 238 346 238 454 q 267 186 238 238 q 340 135 296 135 z "},"r":{"ha":532,"x_min":56,"x_max":528,"o":"m 56 606 q 78 658 61 631 q 114 700 96 686 q 268 575 226 686 q 444 699 321 699 q 528 689 490 699 q 483 519 528 592 q 419 529 463 526 q 289 443 339 529 l 289 0 q 199 -7 247 -7 q 107 0 151 -7 l 107 463 q 56 606 107 561 z "},"s":{"ha":611,"x_min":35,"x_max":572,"o":"m 35 49 q 52 116 36 79 q 89 174 68 153 q 282 114 199 114 q 356 132 328 114 q 385 181 385 150 q 310 258 385 229 l 232 288 q 57 492 57 351 q 76 581 57 542 q 128 649 94 621 q 210 693 163 678 q 315 708 257 708 q 374 704 342 708 q 440 692 407 700 q 504 675 474 685 q 557 654 535 665 q 543 582 557 619 q 506 526 529 544 q 315 575 396 575 q 258 558 279 575 q 238 513 238 540 q 307 444 238 469 l 392 414 q 528 326 483 382 q 572 197 572 271 q 499 40 572 99 q 288 -19 425 -19 q 35 49 153 -19 z "},"t":{"ha":504,"x_min":10,"x_max":476,"o":"m 468 690 q 476 625 476 657 q 468 560 476 593 l 300 563 l 300 197 q 360 133 300 133 l 446 133 q 460 54 460 92 q 456 6 460 17 q 289 -7 371 -7 q 122 163 122 -7 l 122 561 l 17 560 q 10 625 10 588 q 17 690 10 663 l 122 689 l 122 789 q 144 875 122 850 q 221 900 167 900 l 290 900 l 300 892 l 300 688 l 468 690 z "},"u":{"ha":761,"x_min":61,"x_max":703,"o":"m 90 225 l 90 529 q 61 661 90 615 q 167 700 107 700 q 250 672 228 700 q 272 586 272 643 l 272 263 q 288 177 272 203 q 344 151 303 151 q 482 215 418 151 l 482 689 q 572 696 513 696 q 664 689 631 696 l 664 196 q 703 81 664 114 q 678 29 696 56 q 642 -11 661 3 q 501 88 540 -1 q 281 -12 394 -12 q 139 53 188 -12 q 90 225 90 118 z "},"v":{"ha":650,"x_min":0,"x_max":644,"o":"m 338 142 l 479 689 q 553 696 507 696 q 639 682 599 696 l 644 674 q 442 0 508 200 q 316 -8 381 -8 q 224 10 251 -8 q 179 85 196 29 l 0 675 q 103 701 56 701 q 204 619 185 701 l 282 338 q 324 153 297 288 q 338 142 326 142 z "},"w":{"ha":1028,"x_min":18,"x_max":1013,"o":"m 157 83 l 18 679 q 116 701 72 701 q 180 683 160 701 q 207 625 200 664 l 260 369 q 300 146 288 233 q 311 135 303 135 l 407 685 q 515 693 450 693 q 621 685 581 693 l 717 146 q 728 135 718 135 q 771 369 753 279 l 840 689 q 923 697 869 697 q 1007 682 976 697 l 1013 671 l 846 0 q 727 -7 800 -7 q 628 10 654 -7 q 593 81 601 26 l 563 251 q 518 526 535 411 l 510 526 q 464 253 500 454 l 417 0 q 296 -7 368 -7 q 197 11 224 -7 q 157 83 169 29 z "},"x":{"ha":654,"x_min":11,"x_max":647,"o":"m 454 689 q 526 697 483 697 q 617 685 569 697 l 621 671 l 425 367 l 647 29 q 525 -11 586 -11 q 428 43 464 -11 l 314 217 l 185 0 q 106 -8 158 -8 q 17 7 53 -8 l 11 18 l 226 353 l 28 661 q 151 703 86 703 q 204 690 185 703 q 243 646 224 676 l 339 500 l 454 689 z "},"y":{"ha":671,"x_min":1,"x_max":660,"o":"m 660 672 l 482 19 q 366 -225 436 -146 q 156 -304 296 -304 q 4 -278 78 -304 q 13 -208 1 -247 q 42 -149 24 -169 q 157 -168 103 -168 q 307 -26 264 -168 l 313 -8 q 229 11 260 -7 q 186 72 199 29 l 14 675 q 115 701 71 701 q 181 684 160 701 q 215 622 203 667 l 294 329 q 335 136 303 297 q 347 126 336 126 l 483 689 q 564 697 515 697 q 653 683 613 697 l 660 672 z "},"z":{"ha":622,"x_min":42,"x_max":583,"o":"m 68 161 l 263 424 q 374 557 283 451 l 369 563 q 190 553 289 553 l 65 553 q 58 616 58 583 q 69 689 58 649 l 544 689 q 568 587 568 618 q 549 531 568 556 l 353 265 q 246 136 292 186 l 250 129 q 369 136 304 136 l 426 136 q 565 158 519 136 q 583 82 583 114 q 479 0 583 0 l 64 0 q 42 93 42 61 q 68 161 42 125 z "},"{":{"ha":518,"x_min":51,"x_max":510,"o":"m 61 513 q 144 568 111 524 q 176 669 176 613 l 176 899 q 234 1060 176 999 q 388 1136 292 1121 l 469 1149 q 499 1091 488 1129 q 503 1029 510 1053 l 426 1004 q 360 897 360 983 l 360 672 q 327 543 360 603 q 240 460 294 483 l 240 449 q 327 364 294 424 q 360 235 360 304 l 360 10 q 426 -97 360 -76 l 503 -122 q 499 -184 510 -146 q 469 -243 488 -222 l 388 -229 q 234 -153 292 -214 q 176 8 176 -93 l 176 238 q 144 339 176 294 q 61 394 111 383 q 51 453 51 417 q 61 513 51 490 z "},"|":{"ha":365,"x_min":97,"x_max":267,"o":"m 97 -196 l 97 1075 q 182 1082 131 1082 q 267 1075 233 1082 l 267 -196 q 182 -204 235 -204 q 97 -196 129 -204 z "},"}":{"ha":518,"x_min":10,"x_max":467,"o":"m 458 513 q 467 453 467 490 q 458 394 467 417 q 376 339 408 383 q 343 238 343 294 l 343 8 q 285 -153 343 -93 q 131 -229 226 -214 l 49 -243 q 20 -184 31 -222 q 15 -122 10 -146 l 92 -97 q 160 10 160 -75 l 160 235 q 192 364 160 304 q 279 449 225 424 l 279 460 q 192 543 225 483 q 160 672 160 603 l 160 897 q 92 1004 160 982 l 15 1029 q 20 1091 10 1053 q 49 1149 31 1129 l 131 1136 q 285 1060 226 1121 q 343 899 343 999 l 343 669 q 376 567 343 611 q 458 513 408 524 z "},"~":{"ha":847,"x_min":49,"x_max":799,"o":"m 401 515 l 514 464 q 581 447 551 447 q 622 458 603 446 q 660 489 640 469 l 690 522 q 753 501 721 519 q 799 453 786 482 l 775 413 q 567 281 697 281 q 508 288 539 282 q 446 308 478 293 l 333 360 q 267 375 299 375 q 188 335 226 376 l 157 301 q 94 323 126 304 q 49 371 61 342 l 72 411 q 281 543 150 543 q 401 515 335 543 z "},"¡":{"ha":414,"x_min":100,"x_max":317,"o":"m 281 408 l 304 -221 q 111 -271 235 -271 l 100 -258 l 142 408 q 174 415 156 413 q 213 417 193 417 q 281 408 253 417 m 303 536 q 211 515 269 515 q 168 518 188 515 q 133 528 149 521 q 113 555 118 536 q 107 608 107 574 q 113 663 107 643 q 133 690 118 683 q 167 700 149 697 q 211 703 186 703 q 256 699 236 703 q 292 688 275 696 q 312 661 308 681 q 317 608 315 642 q 303 536 317 558 z "},"¢":{"ha":646,"x_min":46,"x_max":604,"o":"m 271 -44 l 271 93 q 168 137 211 106 q 98 216 125 168 q 58 326 71 264 q 46 460 46 388 q 110 696 46 607 q 275 808 174 785 l 275 946 q 342 953 299 953 q 410 946 385 953 l 410 811 q 490 783 454 803 q 551 735 526 763 q 590 674 576 707 q 604 604 604 640 q 507 503 604 503 q 467 506 478 504 q 440 515 456 507 q 338 679 440 679 q 233 456 233 679 q 371 233 233 233 q 528 297 443 233 q 572 253 550 282 q 599 197 593 224 q 406 92 531 117 l 406 -44 q 338 -49 386 -49 q 271 -44 288 -49 z "},"£":{"ha":742,"x_min":63,"x_max":697,"o":"m 321 493 l 565 494 q 575 428 575 468 q 565 363 575 389 q 340 364 415 363 q 260 146 335 246 l 264 142 q 486 150 389 150 l 697 150 q 694 89 697 111 q 572 -1 678 -1 l 92 -1 q 71 123 71 93 q 93 182 71 153 l 114 213 q 176 363 171 296 l 72 363 q 63 428 63 389 q 72 494 63 467 q 110 494 85 494 q 150 493 136 493 q 114 578 119 564 q 99 667 99 624 q 175 842 99 765 q 390 919 251 919 q 553 888 478 919 q 676 811 629 856 q 644 743 671 776 q 582 699 617 710 q 403 769 492 769 q 313 738 347 769 q 278 653 278 707 q 321 493 278 606 z "},"¤":{"ha":810,"x_min":38,"x_max":772,"o":"m 135 299 q 90 463 90 368 q 135 628 90 558 l 38 735 q 132 829 67 789 l 242 729 q 319 758 278 749 q 403 767 360 767 q 564 729 490 767 l 678 832 q 772 738 736 796 l 674 626 q 717 463 717 557 q 671 299 717 371 l 769 190 q 675 96 736 133 l 563 197 q 403 161 493 161 q 244 197 314 161 l 132 97 q 38 192 74 131 l 135 299 m 404 632 q 304 585 338 632 q 271 464 271 539 q 304 344 271 392 q 404 296 338 296 q 504 342 471 296 q 538 464 538 389 q 504 585 538 539 q 404 632 471 632 z "},"¥":{"ha":740,"x_min":28,"x_max":717,"o":"m 663 222 l 457 222 l 457 0 q 367 -7 419 -7 q 278 0 314 -7 l 278 222 l 74 222 q 65 278 65 249 q 74 339 65 308 l 269 339 l 225 439 l 74 439 q 65 495 65 465 q 74 556 65 525 l 174 556 l 28 882 q 135 914 92 914 q 197 899 178 914 q 229 850 215 885 l 311 651 q 371 476 333 596 l 378 476 q 443 654 410 583 l 549 901 q 624 910 579 910 q 710 899 669 910 l 717 889 l 564 556 l 663 556 q 671 495 671 518 q 663 439 671 472 l 510 439 l 464 339 l 663 339 q 671 278 671 301 q 663 222 671 256 z "},"¦":{"ha":357,"x_min":94,"x_max":263,"o":"m 94 -196 l 94 342 q 178 349 128 349 q 263 342 228 349 l 263 -196 q 178 -204 229 -204 q 94 -196 126 -204 m 94 538 l 94 1075 q 178 1082 128 1082 q 263 1075 228 1082 l 263 538 q 178 529 229 529 q 94 538 126 529 z "},"§":{"ha":685,"x_min":40,"x_max":646,"o":"m 646 428 q 504 222 646 307 q 599 61 599 157 q 579 -28 599 13 q 523 -97 560 -68 q 434 -141 486 -125 q 318 -157 382 -157 q 89 -99 186 -157 q 105 -24 89 -58 q 142 26 121 11 q 328 -22 250 -22 q 393 -5 368 -22 q 418 42 418 13 q 400 83 418 65 q 347 115 382 100 l 267 149 q 99 247 158 193 q 40 385 40 300 q 181 590 40 504 q 89 750 89 654 q 108 838 89 797 q 163 907 128 878 q 247 952 199 936 q 353 968 294 968 q 575 918 468 968 q 559 842 575 876 q 524 792 543 808 q 372 833 425 833 q 269 769 269 833 q 340 697 269 724 l 419 665 q 587 567 528 621 q 646 428 646 514 m 333 519 l 301 532 q 215 417 215 488 q 249 348 215 375 q 354 293 283 321 l 386 281 q 471 396 471 324 q 435 465 471 436 q 333 519 400 493 z "},"¨":{"ha":553,"x_min":51,"x_max":501,"o":"m 332 921 q 411 940 364 940 q 490 921 456 940 q 501 857 501 890 q 497 813 501 831 q 479 788 492 794 q 449 779 467 782 q 411 776 432 776 q 368 781 389 776 q 332 796 347 785 q 323 826 325 810 q 321 858 321 842 q 332 921 321 894 m 63 921 q 142 940 94 940 q 221 921 186 940 q 232 857 232 890 q 227 813 232 831 q 210 788 222 794 q 180 779 197 782 q 142 776 163 776 q 99 781 119 776 q 63 796 78 785 q 53 826 56 810 q 51 858 51 842 q 63 921 51 894 z "},"©":{"ha":1104,"x_min":50,"x_max":1056,"o":"m 194 115 q 50 474 50 263 q 89 671 50 579 q 195 831 128 763 q 354 938 263 899 q 551 978 446 978 q 749 939 657 978 q 910 832 842 900 q 1017 672 978 764 q 1056 474 1056 579 q 1017 276 1056 368 q 910 117 978 185 q 749 10 842 49 q 551 -29 657 -29 q 194 115 339 -29 m 293 743 q 192 474 192 633 q 219 325 192 394 q 294 205 246 256 q 408 124 342 154 q 551 94 474 94 q 696 124 629 94 q 811 205 763 154 q 887 325 860 256 q 914 474 914 394 q 887 622 914 553 q 811 742 860 690 q 696 824 763 794 q 551 854 629 854 q 293 743 396 854 m 631 517 l 631 531 q 611 608 631 576 q 550 640 592 640 q 458 478 458 640 q 576 315 458 315 q 700 365 629 315 q 734 330 718 354 q 754 283 750 306 q 664 226 721 249 q 553 203 607 203 q 445 223 490 203 q 370 281 400 243 q 326 369 340 318 q 313 483 313 421 q 333 597 313 547 q 386 679 353 646 q 463 730 419 713 q 551 747 506 747 q 638 734 599 747 q 705 699 678 721 q 747 647 732 676 q 763 583 763 617 q 685 508 763 508 q 631 517 651 508 z "},"ª":{"ha":613,"x_min":54,"x_max":556,"o":"m 272 743 l 363 739 l 363 775 q 341 831 363 813 q 288 850 319 850 q 119 815 219 850 q 81 917 82 857 q 325 968 201 968 q 465 922 410 968 q 519 779 519 875 l 519 563 q 556 476 519 500 q 535 431 553 454 q 497 397 518 407 q 389 458 426 401 q 228 390 311 390 q 156 403 188 390 q 101 440 124 417 q 66 493 78 463 q 54 557 54 524 q 115 697 54 650 q 272 743 175 743 m 267 504 q 363 547 315 504 l 363 640 q 323 642 340 642 q 292 643 306 643 q 227 624 251 643 q 203 572 203 606 q 219 525 203 546 q 267 504 235 504 z "},"«":{"ha":818,"x_min":38,"x_max":771,"o":"m 765 574 l 583 357 l 771 136 q 731 79 761 107 q 669 43 700 51 l 392 300 q 382 354 382 322 q 392 408 382 386 l 667 668 q 726 631 696 660 q 765 574 756 603 m 421 574 l 239 357 l 426 136 q 386 79 417 107 q 325 43 356 51 l 47 300 q 38 354 38 322 q 47 408 38 386 l 322 668 q 381 631 351 660 q 421 574 411 603 z "},"¬":{"ha":736,"x_min":61,"x_max":661,"o":"m 503 346 l 422 344 l 68 344 q 61 418 61 374 q 68 494 61 463 l 651 494 l 661 485 l 661 167 q 585 160 632 160 q 501 167 539 160 l 501 269 l 503 346 z "},"­":{"ha":506,"x_min":60,"x_max":444,"o":"m 436 297 l 68 297 q 60 372 60 328 q 68 447 60 417 l 436 447 q 444 372 444 417 q 436 297 444 328 z "},"®":{"ha":829,"x_min":43,"x_max":788,"o":"m 150 394 q 43 660 43 504 q 72 806 43 738 q 151 924 101 874 q 269 1004 201 975 q 414 1033 336 1033 q 560 1004 492 1033 q 678 924 628 975 q 758 806 729 874 q 788 660 788 738 q 758 514 788 582 q 678 396 729 446 q 560 317 628 346 q 414 288 492 288 q 150 394 260 288 m 228 853 q 153 660 153 774 q 173 553 153 603 q 228 468 193 504 q 310 410 263 432 q 414 389 358 389 q 518 410 469 389 q 601 469 567 432 q 656 555 636 506 q 676 660 676 604 q 656 765 676 715 q 601 851 636 814 q 517 910 565 889 q 414 932 469 932 q 228 853 303 932 m 278 839 l 424 843 q 528 815 494 843 q 561 743 561 786 q 541 678 561 701 q 492 647 521 654 q 538 594 517 635 l 554 561 q 586 521 568 532 q 524 486 560 486 q 489 496 506 486 q 461 528 472 506 l 429 590 q 390 615 417 615 l 371 615 l 371 493 q 349 488 361 489 q 324 486 338 486 q 297 488 310 486 q 274 493 283 489 l 274 836 l 278 839 m 371 769 l 371 689 q 408 692 392 692 q 435 694 424 692 q 453 705 447 697 q 460 729 460 713 q 415 769 460 769 l 371 769 z "},"¯":{"ha":553,"x_min":64,"x_max":489,"o":"m 482 796 l 72 796 q 64 863 64 824 q 72 932 64 901 l 482 932 q 489 863 489 900 q 482 796 489 825 z "},"°":{"ha":471,"x_min":22,"x_max":449,"o":"m 82 567 q 22 721 22 626 q 38 806 22 767 q 83 874 54 846 q 150 919 111 903 q 235 935 189 935 q 319 919 281 935 q 388 874 358 903 q 433 806 417 844 q 449 721 449 767 q 433 635 449 675 q 388 567 417 596 q 320 523 360 539 q 235 507 281 507 q 82 567 142 507 m 175 792 q 158 759 164 778 q 153 721 153 740 q 174 651 153 678 q 235 624 196 624 q 294 651 272 624 q 317 721 317 678 q 294 791 317 764 q 235 818 272 818 q 202 811 218 818 q 175 792 186 804 z "},"±":{"ha":736,"x_min":83,"x_max":653,"o":"m 292 561 l 290 646 l 290 757 q 369 764 324 764 q 446 757 414 764 l 446 646 l 444 561 l 524 563 l 646 563 q 653 494 653 529 q 646 425 653 458 l 524 425 l 444 426 l 446 343 l 446 231 q 369 224 414 224 q 290 231 324 224 l 290 343 l 292 426 l 213 425 l 90 425 q 83 494 83 458 q 90 563 83 529 l 213 563 l 292 561 m 646 0 l 90 0 q 83 71 83 33 q 90 142 83 108 l 646 142 q 653 71 653 108 q 646 0 653 33 z "},"²":{"ha":583,"x_min":63,"x_max":503,"o":"m 503 590 q 486 490 503 525 q 411 454 469 454 l 114 454 q 64 547 64 518 q 163 700 63 617 l 276 794 q 325 879 325 835 q 308 923 325 906 q 264 940 290 940 q 186 869 208 940 q 154 874 171 869 q 121 886 138 879 q 91 902 104 893 q 72 921 78 911 q 144 1032 89 988 q 285 1076 200 1076 q 363 1062 326 1076 q 427 1023 400 1047 q 470 966 454 999 q 486 897 486 933 q 479 833 486 861 q 458 781 472 804 q 422 735 443 757 q 372 692 400 714 l 294 632 q 224 576 226 581 q 360 590 292 590 l 503 590 z "},"³":{"ha":583,"x_min":61,"x_max":496,"o":"m 442 915 l 369 851 q 332 825 361 843 q 449 772 403 821 q 496 639 496 722 q 477 563 496 597 q 427 503 458 528 q 354 464 396 478 q 267 450 313 450 q 61 514 142 450 q 122 615 71 571 q 189 581 158 592 q 244 571 219 571 q 314 596 290 571 q 338 653 338 621 q 312 715 338 696 q 254 735 286 735 q 208 725 228 735 q 172 757 190 732 q 147 806 153 782 l 247 899 q 274 921 260 910 q 307 943 289 932 l 303 949 q 193 940 265 940 l 92 940 q 83 1000 83 965 q 96 1067 83 1039 l 443 1067 q 466 1017 458 1039 q 474 976 474 996 q 442 915 474 940 z "},"´":{"ha":553,"x_min":157,"x_max":482,"o":"m 157 821 l 365 1049 q 435 1006 401 1038 q 482 938 469 974 l 233 749 q 157 821 178 767 z "},"¶":{"ha":989,"x_min":47,"x_max":967,"o":"m 390 86 l 390 338 l 369 338 q 239 358 299 338 q 137 417 179 378 q 71 516 94 457 q 47 651 47 575 q 137 880 47 804 q 378 956 226 956 q 447 954 401 956 q 564 950 493 953 l 574 940 l 574 121 q 507 -137 578 -58 q 279 -219 436 -217 q 233 -217 265 -219 q 169 -210 201 -215 q 111 -199 136 -206 q 86 -181 86 -192 q 97 -114 86 -153 q 126 -51 108 -75 q 204 -73 168 -65 q 271 -81 240 -81 q 360 -44 329 -81 q 390 86 390 -7 m 911 792 l 846 792 l 846 -182 q 751 -190 810 -190 q 661 -182 694 -190 l 661 939 l 669 949 l 957 949 q 967 869 967 924 q 957 792 967 817 l 911 792 z "},"·":{"ha":442,"x_min":115,"x_max":325,"o":"m 128 319 q 115 396 115 346 q 128 474 115 446 q 219 496 168 496 q 313 474 271 496 q 325 396 325 440 q 313 319 325 349 q 219 297 278 297 q 128 319 163 297 z "},"¸":{"ha":553,"x_min":149,"x_max":444,"o":"m 194 -106 q 210 -52 201 -78 q 231 0 219 -26 l 332 0 q 319 -25 325 -14 q 310 -47 313 -36 q 408 -85 372 -51 q 444 -176 444 -118 q 431 -231 444 -206 q 392 -275 417 -256 q 336 -306 368 -294 q 268 -317 304 -317 q 149 -286 193 -317 q 182 -203 150 -236 q 249 -221 208 -221 q 304 -175 304 -221 q 288 -140 304 -150 q 251 -129 271 -129 q 222 -133 235 -129 q 194 -106 201 -122 z "},"¹":{"ha":583,"x_min":64,"x_max":517,"o":"m 64 867 q 181 957 139 913 q 253 1065 224 1001 q 323 1072 286 1072 q 396 1065 360 1072 l 396 589 l 510 589 q 517 523 517 563 q 510 457 517 483 l 107 457 q 101 524 101 486 q 107 589 101 561 l 247 589 l 247 756 q 253 860 247 779 q 132 774 217 813 q 64 867 78 800 z "},"º":{"ha":604,"x_min":53,"x_max":551,"o":"m 469 907 q 551 678 551 825 q 536 563 551 615 q 490 472 521 511 q 411 412 458 433 q 301 390 364 390 q 192 412 239 390 q 114 472 144 433 q 68 563 83 511 q 53 678 53 615 q 69 795 53 742 q 117 887 86 849 q 195 947 149 925 q 301 968 242 968 q 469 907 404 968 m 301 851 q 206 679 206 851 q 301 507 206 507 q 399 679 399 507 q 301 851 399 851 z "},"»":{"ha":818,"x_min":46,"x_max":779,"o":"m 53 138 l 233 354 l 46 575 q 86 632 56 604 q 147 668 117 660 l 426 410 q 435 357 435 389 q 426 303 435 325 l 151 43 q 92 80 121 51 q 53 138 63 108 m 397 138 l 578 354 l 390 575 q 431 632 400 604 q 492 668 461 660 l 771 410 q 779 357 779 389 q 771 303 779 325 l 496 43 q 436 80 465 51 q 397 138 407 108 z "},"¼":{"ha":1392,"x_min":43,"x_max":1342,"o":"m 43 751 q 160 842 118 797 q 232 950 203 886 q 302 957 265 957 q 375 950 339 957 l 375 474 l 489 474 q 496 408 496 447 q 489 342 496 368 l 86 342 q 81 408 81 371 q 86 474 81 446 l 226 474 l 226 640 q 232 744 226 664 q 111 658 196 697 q 43 751 57 685 m 393 0 l 918 949 q 1012 957 954 957 q 1093 949 1069 957 l 569 0 q 475 -8 532 -8 q 393 0 418 -8 m 1301 110 l 1258 111 l 1258 8 q 1188 1 1231 1 q 1113 8 1144 1 l 1113 49 l 1114 111 l 1046 108 l 892 108 q 858 192 858 163 q 879 267 858 221 l 1039 621 q 1117 616 1074 625 q 1183 589 1161 607 l 1096 397 q 1007 233 1047 283 l 1010 231 q 1113 236 1065 236 l 1113 294 q 1140 375 1113 346 q 1217 404 1168 404 l 1254 404 l 1260 399 l 1260 324 l 1258 236 l 1336 236 q 1342 181 1342 214 q 1331 110 1342 147 l 1301 110 z "},"½":{"ha":1392,"x_min":43,"x_max":1332,"o":"m 43 751 q 160 842 118 797 q 232 950 203 886 q 302 957 265 957 q 375 950 339 957 l 375 474 l 489 474 q 496 408 496 447 q 489 342 496 368 l 86 342 q 81 408 81 371 q 86 474 81 446 l 226 474 l 226 640 q 232 744 226 664 q 111 658 196 697 q 43 751 57 685 m 375 0 l 900 949 q 994 957 936 957 q 1075 949 1051 957 l 551 0 q 457 -8 514 -8 q 375 0 400 -8 m 1332 142 q 1315 41 1332 76 q 1240 6 1299 6 l 943 6 q 893 99 893 69 q 992 251 892 168 l 1106 346 q 1154 431 1154 386 q 1137 474 1154 457 q 1093 492 1119 492 q 1015 421 1038 492 q 983 426 1000 421 q 950 438 967 431 q 920 453 933 444 q 901 472 907 463 q 974 583 918 539 q 1114 628 1029 628 q 1192 613 1156 628 q 1256 574 1229 599 q 1299 517 1283 550 q 1315 449 1315 485 q 1308 384 1315 413 q 1287 332 1301 356 q 1251 287 1272 308 q 1201 243 1229 265 l 1124 183 q 1053 128 1056 132 q 1189 142 1121 142 l 1332 142 z "},"¾":{"ha":1392,"x_min":64,"x_max":1324,"o":"m 444 800 l 372 736 q 335 710 364 728 q 452 656 406 706 q 499 524 499 607 q 480 447 499 482 q 430 388 461 413 q 357 349 399 363 q 269 335 315 335 q 64 399 144 335 q 125 500 74 456 q 192 466 161 476 q 247 456 222 456 q 317 481 293 456 q 340 538 340 506 q 315 600 340 581 q 257 619 289 619 q 211 610 231 619 q 174 642 193 617 q 150 690 156 667 l 250 783 q 277 806 263 794 q 310 828 292 817 l 306 833 q 196 825 268 825 l 94 825 q 86 885 86 850 q 99 951 86 924 l 446 951 q 469 902 461 924 q 476 861 476 881 q 444 800 476 825 m 361 0 l 886 949 q 980 957 922 957 q 1061 949 1038 957 l 538 0 q 443 -8 500 -8 q 361 0 386 -8 m 1283 110 l 1240 111 l 1240 8 q 1169 1 1213 1 q 1094 8 1126 1 l 1094 49 l 1096 111 l 1028 108 l 874 108 q 840 192 840 163 q 861 267 840 221 l 1021 621 q 1099 616 1056 625 q 1165 589 1143 607 l 1078 397 q 989 233 1029 283 l 992 231 q 1094 236 1047 236 l 1094 294 q 1122 375 1094 346 q 1199 404 1150 404 l 1236 404 l 1242 399 l 1242 324 l 1240 236 l 1318 236 q 1324 181 1324 214 q 1313 110 1324 147 l 1283 110 z "},"¿":{"ha":568,"x_min":18,"x_max":567,"o":"m 567 -207 q 297 -282 433 -282 q 90 -216 163 -282 q 18 -37 18 -150 q 199 235 18 135 l 285 282 l 297 404 q 329 411 313 408 q 365 414 346 414 q 401 411 383 414 q 435 404 419 408 l 444 197 l 429 179 l 357 144 q 247 70 285 110 q 208 -17 208 31 q 240 -94 208 -61 q 332 -126 271 -126 q 408 -115 365 -126 q 500 -75 450 -103 q 524 -100 513 -85 q 545 -133 536 -115 q 560 -171 554 -151 q 567 -207 567 -190 m 456 536 q 361 515 419 515 q 317 519 336 515 q 283 531 297 522 q 264 558 269 539 q 258 608 258 576 q 263 660 258 642 q 283 688 268 679 q 317 699 297 696 q 363 703 336 703 q 407 700 388 703 q 442 690 426 697 q 463 663 457 683 q 468 608 468 643 q 456 536 468 557 z "},"À":{"ha":868,"x_min":19,"x_max":849,"o":"m 592 215 l 524 214 l 329 214 l 261 215 l 196 -1 q 113 -8 167 -8 q 26 4 60 -8 l 19 14 l 329 949 q 440 956 381 956 q 544 947 500 956 l 849 13 q 752 -11 808 -11 q 672 10 696 -11 q 631 89 647 31 l 592 215 m 307 363 l 369 364 l 489 364 l 547 363 l 506 504 q 431 774 458 663 l 422 774 q 361 539 410 714 l 307 363 m 315 1279 l 611 1100 q 558 1011 600 1036 l 240 1139 q 267 1219 243 1178 q 315 1279 290 1260 z "},"Á":{"ha":868,"x_min":19,"x_max":849,"o":"m 592 215 l 524 214 l 329 214 l 261 215 l 196 -1 q 113 -8 167 -8 q 26 4 60 -8 l 19 14 l 329 949 q 440 956 381 956 q 544 947 500 956 l 849 13 q 752 -11 808 -11 q 672 10 696 -11 q 631 89 647 31 l 592 215 m 307 363 l 369 364 l 489 364 l 547 363 l 506 504 q 431 774 458 663 l 422 774 q 361 539 410 714 l 307 363 m 281 1100 l 576 1279 q 625 1219 601 1260 q 651 1139 649 1178 l 333 1011 q 299 1049 314 1022 q 281 1100 283 1075 z "},"Â":{"ha":868,"x_min":19,"x_max":849,"o":"m 592 215 l 524 214 l 329 214 l 261 215 l 196 -1 q 113 -8 167 -8 q 26 4 60 -8 l 19 14 l 329 949 q 440 956 381 956 q 544 947 500 956 l 849 13 q 752 -11 808 -11 q 672 10 696 -11 q 631 89 647 31 l 592 215 m 307 363 l 369 364 l 489 364 l 547 363 l 506 504 q 431 774 458 663 l 422 774 q 361 539 410 714 l 307 363 m 596 1022 l 436 1125 l 272 1008 q 226 1039 250 1017 q 196 1086 203 1061 l 358 1249 q 513 1249 438 1265 l 669 1099 q 640 1051 661 1072 q 596 1022 618 1031 z "},"Ã":{"ha":868,"x_min":19,"x_max":849,"o":"m 592 215 l 524 214 l 329 214 l 261 215 l 196 -1 q 113 -8 167 -8 q 26 4 60 -8 l 19 14 l 329 949 q 440 956 381 956 q 544 947 500 956 l 849 13 q 752 -11 808 -11 q 672 10 696 -11 q 631 89 647 31 l 592 215 m 307 363 l 369 364 l 489 364 l 547 363 l 506 504 q 431 774 458 663 l 422 774 q 361 539 410 714 l 307 363 m 446 1053 l 375 1086 q 354 1095 365 1092 q 332 1099 343 1099 q 278 1065 303 1100 l 264 1046 q 209 1063 236 1047 q 172 1101 182 1078 l 185 1128 q 343 1240 236 1240 q 385 1235 364 1242 q 429 1217 406 1228 l 500 1183 q 522 1174 511 1178 q 543 1171 532 1171 q 597 1204 572 1169 l 611 1222 q 666 1207 639 1222 q 703 1168 693 1192 l 690 1142 q 532 1029 638 1029 q 446 1053 489 1029 z "},"Ä":{"ha":868,"x_min":19,"x_max":849,"o":"m 592 215 l 524 214 l 329 214 l 261 215 l 196 -1 q 113 -8 167 -8 q 26 4 60 -8 l 19 14 l 329 949 q 440 956 381 956 q 544 947 500 956 l 849 13 q 752 -11 808 -11 q 672 10 696 -11 q 631 89 647 31 l 592 215 m 307 363 l 369 364 l 489 364 l 547 363 l 506 504 q 431 774 458 663 l 422 774 q 361 539 410 714 l 307 363 m 668 1169 q 683 1104 683 1146 q 677 1058 683 1076 q 657 1035 671 1040 q 627 1026 643 1029 q 593 1022 611 1022 q 559 1026 576 1022 q 526 1035 542 1029 q 504 1059 511 1042 q 497 1106 497 1076 q 504 1152 497 1133 q 526 1176 511 1171 q 559 1185 542 1182 q 593 1189 576 1189 q 668 1169 633 1189 m 207 1169 q 281 1189 238 1189 q 314 1185 297 1189 q 347 1177 331 1182 q 369 1154 363 1172 q 375 1106 375 1136 q 369 1058 375 1075 q 347 1034 364 1040 q 314 1025 331 1028 q 281 1022 297 1022 q 217 1035 242 1024 q 192 1104 192 1047 q 207 1169 192 1146 z "},"Å":{"ha":868,"x_min":19,"x_max":849,"o":"m 592 215 l 494 214 l 329 214 l 261 215 l 196 -1 q 113 -8 164 -8 q 26 4 60 -8 l 19 14 l 329 949 l 333 949 q 254 1089 254 996 q 268 1155 254 1124 q 306 1208 282 1186 q 364 1244 331 1231 q 438 1257 397 1257 q 511 1244 478 1257 q 569 1208 544 1231 q 606 1155 593 1186 q 619 1089 619 1124 q 539 949 619 996 l 544 949 l 849 13 q 751 -11 808 -11 q 704 -6 724 -11 q 672 10 685 -1 q 649 40 658 21 q 631 89 639 60 l 592 215 m 307 363 l 368 364 l 489 364 l 547 363 l 506 504 q 463 651 482 583 q 431 774 443 718 l 422 774 q 400 685 415 743 q 361 539 385 626 l 307 363 m 438 1163 q 388 1142 407 1163 q 368 1089 368 1121 q 389 1036 368 1056 q 442 1017 410 1017 q 489 1040 474 1017 q 504 1090 504 1063 q 488 1140 504 1118 q 438 1163 471 1163 z "},"Æ":{"ha":1225,"x_min":14,"x_max":1168,"o":"m 729 239 l 728 151 q 825 154 786 154 l 1168 154 q 1164 86 1168 110 q 1044 -3 1149 -3 l 654 -3 q 576 26 604 -3 q 549 108 549 56 l 549 215 q 488 214 528 214 l 364 214 q 299 215 321 214 l 201 0 q 113 -7 175 -7 q 19 6 50 -7 l 14 14 l 446 932 q 558 949 483 949 l 1136 949 q 1143 874 1143 914 q 1128 792 1143 835 l 728 792 l 729 696 l 729 553 q 819 554 764 554 l 1057 554 q 1068 478 1068 522 q 1057 401 1068 433 l 729 401 l 729 239 m 486 363 l 549 361 l 549 774 l 542 774 q 446 539 486 626 l 365 361 l 415 363 l 486 363 z "},"Ç":{"ha":842,"x_min":58,"x_max":799,"o":"m 358 -106 q 371 -60 364 -82 q 386 -17 378 -37 q 234 35 296 -8 q 133 146 172 79 q 76 297 93 213 q 58 471 58 381 q 89 690 58 596 q 172 845 119 783 q 294 938 224 907 q 443 969 364 969 q 591 947 525 969 q 703 887 657 925 q 774 798 749 849 q 799 689 799 747 q 693 585 799 585 q 660 587 678 585 q 619 594 642 589 l 619 608 q 610 692 619 654 q 579 759 600 731 q 526 803 558 788 q 447 819 493 819 q 300 728 346 819 q 254 453 254 638 q 310 224 254 306 q 464 143 367 143 q 576 167 515 143 q 706 244 636 192 q 761 190 735 225 q 794 124 788 156 q 660 32 742 71 q 488 -17 578 -7 q 474 -47 478 -33 q 572 -85 536 -51 q 608 -176 608 -118 q 594 -231 608 -206 q 556 -275 581 -256 q 500 -306 532 -294 q 432 -317 468 -317 q 314 -286 357 -317 q 346 -203 315 -235 q 413 -221 372 -221 q 468 -175 468 -221 q 453 -140 468 -150 q 415 -129 438 -129 q 386 -133 399 -129 q 358 -106 365 -122 z "},"È":{"ha":792,"x_min":114,"x_max":735,"o":"m 299 238 l 297 151 l 394 154 l 735 154 q 731 86 735 110 q 611 -3 715 -3 l 221 -3 q 142 27 171 -3 q 114 108 114 57 l 114 939 l 124 949 l 703 949 q 710 874 710 914 q 694 792 710 835 l 297 792 l 299 696 l 299 553 l 389 554 l 624 554 q 635 478 635 522 q 624 401 635 433 l 299 401 l 299 238 m 292 1279 l 588 1100 q 535 1011 576 1036 l 217 1139 q 243 1219 219 1178 q 292 1279 267 1260 z "},"É":{"ha":792,"x_min":114,"x_max":735,"o":"m 299 238 l 297 151 l 394 154 l 735 154 q 731 86 735 110 q 611 -3 715 -3 l 221 -3 q 142 27 171 -3 q 114 108 114 57 l 114 939 l 124 949 l 703 949 q 710 874 710 914 q 694 792 710 835 l 297 792 l 299 696 l 299 553 l 389 554 l 624 554 q 635 478 635 522 q 624 401 635 433 l 299 401 l 299 238 m 258 1100 l 554 1279 q 603 1219 579 1260 q 629 1139 626 1178 l 311 1011 q 276 1049 292 1022 q 258 1100 261 1075 z "},"Ê":{"ha":792,"x_min":114,"x_max":735,"o":"m 299 238 l 297 151 l 394 154 l 735 154 q 731 86 735 110 q 611 -3 715 -3 l 221 -3 q 142 27 171 -3 q 114 108 114 57 l 114 939 l 124 949 l 703 949 q 710 874 710 914 q 694 792 710 835 l 297 792 l 299 696 l 299 553 l 389 554 l 624 554 q 635 478 635 522 q 624 401 635 433 l 299 401 l 299 238 m 574 1022 l 414 1125 l 250 1008 q 204 1039 228 1017 q 174 1086 181 1061 l 336 1249 q 490 1249 415 1265 l 647 1099 q 617 1051 639 1072 q 574 1022 596 1031 z "},"Ë":{"ha":792,"x_min":114,"x_max":735,"o":"m 299 238 l 297 151 l 394 154 l 735 154 q 731 86 735 110 q 611 -3 715 -3 l 221 -3 q 142 27 171 -3 q 114 108 114 57 l 114 939 l 124 949 l 703 949 q 710 874 710 914 q 694 792 710 835 l 297 792 l 299 696 l 299 553 l 389 554 l 624 554 q 635 478 635 522 q 624 401 635 433 l 299 401 l 299 238 m 646 1169 q 661 1104 661 1146 q 655 1058 661 1076 q 635 1035 649 1040 q 605 1026 621 1029 q 571 1022 589 1022 q 537 1026 554 1022 q 504 1035 519 1029 q 482 1059 489 1042 q 475 1106 475 1076 q 482 1152 475 1133 q 504 1176 489 1171 q 537 1185 519 1182 q 571 1189 554 1189 q 646 1169 611 1189 m 185 1169 q 258 1189 215 1189 q 292 1185 275 1189 q 324 1177 308 1182 q 347 1154 340 1172 q 353 1106 353 1136 q 347 1058 353 1075 q 325 1034 342 1040 q 292 1025 308 1028 q 258 1022 275 1022 q 194 1035 219 1024 q 169 1104 169 1047 q 185 1169 169 1146 z "},"Ì":{"ha":425,"x_min":15,"x_max":386,"o":"m 119 0 l 119 949 q 210 956 154 956 q 306 949 267 956 l 306 0 q 210 -7 267 -7 q 119 0 154 -7 m 90 1279 l 386 1100 q 333 1011 375 1036 l 15 1139 q 42 1219 18 1178 q 90 1279 65 1260 z "},"Í":{"ha":425,"x_min":57,"x_max":428,"o":"m 119 0 l 119 949 q 210 956 154 956 q 306 949 267 956 l 306 0 q 210 -7 267 -7 q 119 0 154 -7 m 57 1100 l 353 1279 q 401 1219 378 1260 q 428 1139 425 1178 l 110 1011 q 75 1049 90 1022 q 57 1100 60 1075 z "},"Î":{"ha":425,"x_min":-26,"x_max":447,"o":"m 119 0 l 119 949 q 210 956 154 956 q 306 949 267 956 l 306 0 q 210 -7 267 -7 q 119 0 154 -7 m 374 1022 l 214 1125 l 50 1008 q 4 1039 28 1017 q -26 1086 -19 1061 l 136 1249 q 290 1249 215 1265 l 447 1099 q 417 1051 439 1072 q 374 1022 396 1031 z "},"Ï":{"ha":425,"x_min":-32,"x_max":460,"o":"m 119 0 l 119 949 q 210 956 154 956 q 306 949 267 956 l 306 0 q 210 -7 267 -7 q 119 0 154 -7 m 444 1169 q 460 1104 460 1146 q 453 1058 460 1076 q 433 1035 447 1040 q 403 1026 419 1029 q 369 1022 388 1022 q 335 1026 353 1022 q 303 1035 318 1029 q 281 1059 288 1042 q 274 1106 274 1076 q 281 1152 274 1133 q 303 1176 288 1171 q 335 1185 318 1182 q 369 1189 353 1189 q 444 1169 410 1189 m -17 1169 q 57 1189 14 1189 q 90 1185 74 1189 q 123 1177 107 1182 q 145 1154 139 1172 q 151 1106 151 1136 q 146 1058 151 1075 q 124 1034 140 1040 q 90 1025 107 1028 q 57 1022 74 1022 q -7 1035 18 1024 q -32 1104 -32 1047 q -17 1169 -32 1146 z "},"Ð":{"ha":935,"x_min":29,"x_max":875,"o":"m 724 63 q 608 10 679 26 q 463 -7 538 -7 q 347 -6 425 -7 q 146 -1 268 -4 l 136 7 l 136 406 l 36 406 q 31 439 32 419 q 29 479 29 458 q 31 520 29 500 q 36 557 32 540 l 136 557 l 136 942 l 146 950 q 308 954 226 953 q 475 956 390 956 q 669 918 592 956 q 792 815 746 881 q 856 661 838 749 q 875 474 875 574 q 844 234 875 335 q 724 63 813 133 m 514 406 l 319 406 l 319 139 q 382 140 347 140 q 457 140 417 140 q 578 169 533 140 q 646 247 624 197 q 675 356 668 296 q 682 475 682 415 q 674 599 682 539 q 642 707 665 660 q 579 781 619 754 q 475 808 539 808 q 386 808 425 808 q 319 810 347 808 l 319 557 l 514 557 q 519 520 517 540 q 521 479 521 500 q 514 406 521 436 z "},"Ñ":{"ha":956,"x_min":115,"x_max":840,"o":"m 831 957 l 840 947 l 840 3 q 732 -7 797 -7 q 618 0 667 -7 l 363 538 q 279 732 307 660 l 274 731 q 289 353 289 535 l 289 0 q 201 -7 250 -7 q 115 0 151 -7 l 115 946 q 221 956 156 956 q 335 949 286 956 l 588 411 l 678 206 l 682 207 q 668 588 668 408 l 668 842 q 692 931 668 904 q 771 957 715 957 l 831 957 m 490 1053 l 419 1086 q 399 1095 410 1092 q 376 1099 388 1099 q 322 1065 347 1100 l 308 1046 q 253 1063 281 1047 q 217 1101 226 1078 l 229 1128 q 388 1240 281 1240 q 429 1235 408 1242 q 474 1217 450 1228 l 544 1183 q 566 1174 556 1178 q 588 1171 576 1171 q 642 1204 617 1169 l 656 1222 q 710 1207 683 1222 q 747 1168 738 1192 l 735 1142 q 576 1029 682 1029 q 490 1053 533 1029 z "},"Ò":{"ha":919,"x_min":58,"x_max":861,"o":"m 665 474 q 460 822 665 822 q 254 474 254 822 q 460 126 254 126 q 665 474 665 126 m 207 65 q 58 474 58 193 q 85 683 58 592 q 165 838 113 775 q 291 935 217 901 q 461 968 365 968 q 630 935 556 968 q 756 838 704 901 q 834 683 807 775 q 861 474 861 590 q 834 265 861 357 q 756 110 807 174 q 630 14 704 47 q 461 -19 556 -19 q 207 65 310 -19 m 336 1279 l 632 1100 q 579 1011 621 1036 l 261 1139 q 288 1219 264 1178 q 336 1279 311 1260 z "},"Ó":{"ha":919,"x_min":58,"x_max":861,"o":"m 665 474 q 460 822 665 822 q 254 474 254 822 q 460 126 254 126 q 665 474 665 126 m 207 65 q 58 474 58 193 q 85 683 58 592 q 165 838 113 775 q 291 935 217 901 q 461 968 365 968 q 630 935 556 968 q 756 838 704 901 q 834 683 807 775 q 861 474 861 590 q 834 265 861 357 q 756 110 807 174 q 630 14 704 47 q 461 -19 556 -19 q 207 65 310 -19 m 303 1100 l 599 1279 q 647 1219 624 1260 q 674 1139 671 1178 l 356 1011 q 321 1049 336 1022 q 303 1100 306 1075 z "},"Ô":{"ha":919,"x_min":58,"x_max":861,"o":"m 665 474 q 460 822 665 822 q 254 474 254 822 q 460 126 254 126 q 665 474 665 126 m 207 65 q 58 474 58 193 q 85 683 58 592 q 165 838 113 775 q 291 935 217 901 q 461 968 365 968 q 630 935 556 968 q 756 838 704 901 q 834 683 807 775 q 861 474 861 590 q 834 265 861 357 q 756 110 807 174 q 630 14 704 47 q 461 -19 556 -19 q 207 65 310 -19 m 618 1022 l 458 1125 l 294 1008 q 249 1039 272 1017 q 218 1086 225 1061 l 381 1249 q 535 1249 460 1265 l 692 1099 q 662 1051 683 1072 q 618 1022 640 1031 z "},"Õ":{"ha":919,"x_min":58,"x_max":861,"o":"m 665 474 q 460 822 665 822 q 254 474 254 822 q 460 126 254 126 q 665 474 665 126 m 207 65 q 58 474 58 193 q 85 683 58 592 q 165 838 113 775 q 291 935 217 901 q 461 968 365 968 q 630 935 556 968 q 756 838 704 901 q 834 683 807 775 q 861 474 861 590 q 834 265 861 357 q 756 110 807 174 q 630 14 704 47 q 461 -19 556 -19 q 207 65 310 -19 m 460 1053 l 389 1086 q 368 1095 379 1092 q 346 1099 357 1099 q 292 1065 317 1100 l 278 1046 q 223 1063 250 1047 q 186 1101 196 1078 l 199 1128 q 357 1240 250 1240 q 399 1235 378 1242 q 443 1217 419 1228 l 514 1183 q 535 1174 525 1178 q 557 1171 546 1171 q 611 1204 586 1169 l 625 1222 q 680 1207 653 1222 q 717 1168 707 1192 l 704 1142 q 546 1029 651 1029 q 460 1053 503 1029 z "},"Ö":{"ha":919,"x_min":58,"x_max":861,"o":"m 665 474 q 460 822 665 822 q 254 474 254 822 q 460 126 254 126 q 665 474 665 126 m 207 65 q 58 474 58 193 q 85 683 58 592 q 165 838 113 775 q 291 935 217 901 q 461 968 365 968 q 630 935 556 968 q 756 838 704 901 q 834 683 807 775 q 861 474 861 590 q 834 265 861 357 q 756 110 807 174 q 630 14 704 47 q 461 -19 556 -19 q 207 65 310 -19 m 690 1169 q 706 1104 706 1146 q 699 1058 706 1076 q 679 1035 693 1040 q 649 1026 665 1029 q 615 1022 633 1022 q 581 1026 599 1022 q 549 1035 564 1029 q 526 1059 533 1042 q 519 1106 519 1076 q 526 1152 519 1133 q 549 1176 533 1171 q 581 1185 564 1182 q 615 1189 599 1189 q 690 1169 656 1189 m 229 1169 q 303 1189 260 1189 q 336 1185 319 1189 q 369 1177 353 1182 q 391 1154 385 1172 q 397 1106 397 1136 q 392 1058 397 1075 q 369 1034 386 1040 q 336 1025 353 1028 q 303 1022 319 1022 q 239 1035 264 1024 q 214 1104 214 1047 q 229 1169 214 1146 z "},"×":{"ha":736,"x_min":89,"x_max":646,"o":"m 368 306 q 333 270 349 286 q 197 133 317 254 q 133 180 161 150 q 89 242 104 210 l 208 361 l 261 411 q 233 439 251 421 q 208 463 214 457 l 89 582 q 197 690 125 660 l 317 571 q 368 518 350 535 q 418 569 408 560 l 538 690 q 646 582 611 653 l 474 411 l 526 361 l 646 242 q 602 177 629 206 q 538 133 575 149 l 418 254 q 368 306 407 264 z "},"Ø":{"ha":924,"x_min":58,"x_max":865,"o":"m 58 475 q 85 681 58 589 q 163 836 111 772 q 289 934 214 900 q 461 968 364 968 q 629 938 558 968 l 688 1039 q 806 975 763 1028 l 740 858 q 865 475 865 722 q 839 270 865 361 q 761 115 813 179 q 634 15 710 50 q 461 -19 558 -19 q 293 11 368 -19 l 236 -87 q 171 -65 204 -83 q 119 -24 138 -47 l 183 89 q 58 475 58 224 m 276 264 l 557 803 q 456 828 513 828 q 354 797 394 828 q 290 715 314 767 q 257 593 267 663 q 247 444 247 524 q 276 264 247 347 m 646 683 l 365 144 q 465 121 406 121 q 572 153 531 121 q 637 240 614 186 q 668 363 660 294 q 676 504 676 432 q 646 683 676 601 z "},"Ù":{"ha":932,"x_min":103,"x_max":829,"o":"m 829 949 l 829 342 q 734 74 829 168 q 465 -19 639 -19 q 198 74 293 -19 q 103 342 103 168 l 103 947 l 111 957 l 181 957 q 263 928 236 957 q 289 838 289 900 l 289 340 q 465 129 289 129 q 643 340 643 129 l 643 949 q 736 956 682 956 q 829 949 790 956 m 340 1279 l 636 1100 q 583 1011 625 1036 l 265 1139 q 292 1219 268 1178 q 340 1279 315 1260 z "},"Ú":{"ha":932,"x_min":103,"x_max":829,"o":"m 829 949 l 829 342 q 734 74 829 168 q 465 -19 639 -19 q 198 74 293 -19 q 103 342 103 168 l 103 947 l 111 957 l 181 957 q 263 928 236 957 q 289 838 289 900 l 289 340 q 465 129 289 129 q 643 340 643 129 l 643 949 q 736 956 682 956 q 829 949 790 956 m 307 1100 l 603 1279 q 651 1219 628 1260 q 678 1139 675 1178 l 360 1011 q 325 1049 340 1022 q 307 1100 310 1075 z "},"Û":{"ha":932,"x_min":103,"x_max":829,"o":"m 829 949 l 829 342 q 734 74 829 168 q 465 -19 639 -19 q 198 74 293 -19 q 103 342 103 168 l 103 947 l 111 957 l 181 957 q 263 928 236 957 q 289 838 289 900 l 289 340 q 465 129 289 129 q 643 340 643 129 l 643 949 q 736 956 682 956 q 829 949 790 956 m 622 1022 l 463 1125 l 299 1008 q 253 1039 276 1017 q 222 1086 229 1061 l 385 1249 q 539 1249 464 1265 l 696 1099 q 666 1051 688 1072 q 622 1022 644 1031 z "},"Ü":{"ha":932,"x_min":103,"x_max":829,"o":"m 829 949 l 829 342 q 734 74 829 168 q 465 -19 639 -19 q 198 74 293 -19 q 103 342 103 168 l 103 947 l 111 957 l 181 957 q 263 928 236 957 q 289 838 289 900 l 289 340 q 465 129 289 129 q 643 340 643 129 l 643 949 q 736 956 682 956 q 829 949 790 956 m 696 1169 q 711 1104 711 1146 q 705 1058 711 1076 q 685 1035 699 1040 q 655 1026 671 1029 q 621 1022 639 1022 q 587 1026 604 1022 q 554 1035 569 1029 q 532 1059 539 1042 q 525 1106 525 1076 q 532 1152 525 1133 q 554 1176 539 1171 q 587 1185 569 1182 q 621 1189 604 1189 q 696 1169 661 1189 m 235 1169 q 308 1189 265 1189 q 342 1185 325 1189 q 374 1177 358 1182 q 397 1154 390 1172 q 403 1106 403 1136 q 397 1058 403 1075 q 375 1034 392 1040 q 342 1025 358 1028 q 308 1022 325 1022 q 244 1035 269 1024 q 219 1104 219 1047 q 235 1169 219 1146 z "},"Ý":{"ha":726,"x_min":4,"x_max":724,"o":"m 439 674 l 549 949 q 629 956 581 956 q 717 943 678 956 l 724 932 l 457 296 l 457 0 q 364 -7 421 -7 q 271 0 307 -7 l 271 301 l 4 926 q 110 960 63 960 q 179 942 157 960 q 218 882 201 924 l 306 668 q 365 482 342 574 l 374 482 q 439 674 396 563 m 213 1100 l 508 1279 q 557 1219 533 1260 q 583 1139 581 1178 l 265 1011 q 231 1049 246 1022 q 213 1100 215 1075 z "},"Þ":{"ha":807,"x_min":115,"x_max":758,"o":"m 301 813 l 426 814 q 563 795 501 814 q 668 738 625 776 q 735 641 711 699 q 758 507 758 583 q 735 371 758 429 q 667 274 711 313 q 563 215 624 235 q 426 194 501 194 l 301 194 l 301 0 q 208 -7 263 -7 q 115 0 154 -7 l 115 949 q 208 956 154 956 q 301 949 263 956 l 301 813 m 415 669 l 301 669 l 301 339 q 385 339 339 340 q 471 348 431 338 q 539 397 511 358 q 567 504 567 435 q 558 569 567 539 q 533 622 550 600 q 486 657 515 644 q 415 669 457 669 z "},"ß":{"ha":892,"x_min":13,"x_max":853,"o":"m 139 0 l 139 521 l 19 519 q 14 554 15 536 q 13 590 13 572 q 14 626 13 608 q 19 661 15 643 l 139 660 l 139 699 q 226 901 139 831 q 458 971 313 971 q 591 951 531 971 q 694 893 651 931 q 760 803 736 856 q 783 688 783 751 q 761 581 783 638 q 688 543 715 567 q 661 492 661 519 q 700 424 660 460 l 753 374 q 853 185 853 278 q 833 101 853 139 q 778 37 813 64 q 696 -5 743 10 q 593 -19 649 -19 q 404 21 485 -19 q 409 54 404 36 q 421 90 414 72 q 437 122 428 107 q 457 147 446 138 q 515 125 488 132 q 567 118 543 118 q 634 137 607 118 q 661 186 661 156 q 650 226 661 204 q 613 271 639 247 l 556 322 q 468 476 468 401 q 502 571 468 525 q 594 640 536 617 q 599 683 599 661 q 563 790 599 747 q 458 832 526 832 q 324 679 324 832 l 324 0 q 277 -6 300 -4 q 231 -7 254 -7 q 185 -6 207 -7 q 139 0 163 -4 z "},"à":{"ha":708,"x_min":50,"x_max":657,"o":"m 657 83 q 632 31 650 58 q 596 -11 614 3 q 464 68 506 0 q 267 -19 374 -19 q 172 -2 213 -19 q 103 44 131 15 q 63 111 76 74 q 50 189 50 149 q 70 291 50 247 q 127 364 90 335 q 213 408 164 393 q 321 424 263 424 q 438 419 396 424 l 438 457 q 335 563 438 563 q 124 514 265 563 q 76 643 85 557 q 381 706 224 706 q 551 647 485 706 q 618 471 618 589 l 618 186 q 657 83 618 113 m 307 118 q 438 179 376 118 l 438 300 q 394 303 415 301 q 354 304 374 304 q 261 281 293 304 q 229 206 229 258 q 250 141 229 164 q 307 118 271 118 m 267 1049 l 474 821 q 442 776 464 796 q 397 749 421 756 l 150 938 q 196 1004 161 972 q 267 1049 231 1036 z "},"á":{"ha":708,"x_min":50,"x_max":657,"o":"m 657 83 q 632 31 650 58 q 596 -11 614 3 q 464 68 506 0 q 267 -19 374 -19 q 172 -2 213 -19 q 103 44 131 15 q 63 111 76 74 q 50 189 50 149 q 70 291 50 247 q 127 364 90 335 q 213 408 164 393 q 321 424 263 424 q 438 419 396 424 l 438 457 q 335 563 438 563 q 124 514 265 563 q 76 643 85 557 q 381 706 224 706 q 551 647 485 706 q 618 471 618 589 l 618 186 q 657 83 618 113 m 307 118 q 438 179 376 118 l 438 300 q 394 303 415 301 q 354 304 374 304 q 261 281 293 304 q 229 206 229 258 q 250 141 229 164 q 307 118 271 118 m 226 821 l 435 1049 q 505 1006 471 1038 q 551 938 539 974 l 303 749 q 226 821 247 767 z "},"â":{"ha":708,"x_min":50,"x_max":657,"o":"m 657 83 q 632 31 650 58 q 596 -11 614 3 q 464 68 506 0 q 267 -19 374 -19 q 172 -2 213 -19 q 103 44 131 15 q 63 111 76 74 q 50 189 50 149 q 70 291 50 247 q 127 364 90 335 q 213 408 164 393 q 321 424 263 424 q 438 419 396 424 l 438 457 q 335 563 438 563 q 124 514 265 563 q 76 643 85 557 q 381 706 224 706 q 551 647 485 706 q 618 471 618 589 l 618 186 q 657 83 618 113 m 307 118 q 438 179 376 118 l 438 300 q 394 303 415 301 q 354 304 374 304 q 261 281 293 304 q 229 206 229 258 q 250 141 229 164 q 307 118 271 118 m 476 763 l 347 886 l 211 754 q 129 825 158 774 l 275 1013 q 426 1013 342 1035 l 557 839 q 522 791 546 813 q 476 763 499 769 z "},"ã":{"ha":708,"x_min":50,"x_max":657,"o":"m 657 83 q 632 31 650 58 q 596 -11 614 3 q 464 68 506 0 q 267 -19 374 -19 q 172 -2 213 -19 q 103 44 131 15 q 63 111 76 74 q 50 189 50 149 q 70 291 50 247 q 127 364 90 335 q 213 408 164 393 q 321 424 263 424 q 438 419 396 424 l 438 457 q 335 563 438 563 q 124 514 265 563 q 76 643 85 557 q 381 706 224 706 q 551 647 485 706 q 618 471 618 589 l 618 186 q 657 83 618 113 m 307 118 q 438 179 376 118 l 438 300 q 394 303 415 301 q 354 304 374 304 q 261 281 293 304 q 229 206 229 258 q 250 141 229 164 q 307 118 271 118 m 351 794 l 283 828 q 264 837 274 833 q 243 840 254 840 q 217 833 231 840 q 189 807 203 826 l 175 788 q 124 804 149 789 q 89 843 99 819 l 101 871 q 165 954 121 926 q 256 982 208 982 q 335 960 300 982 l 403 925 q 424 916 414 919 q 444 913 433 913 q 497 947 468 911 l 511 965 q 562 949 536 965 q 597 910 588 933 l 585 883 q 435 772 531 772 q 351 794 390 772 z "},"ä":{"ha":708,"x_min":50,"x_max":657,"o":"m 657 83 q 632 31 650 58 q 596 -11 614 3 q 464 68 506 0 q 267 -19 374 -19 q 172 -2 213 -19 q 103 44 131 15 q 63 111 76 74 q 50 189 50 149 q 70 291 50 247 q 127 364 90 335 q 213 408 164 393 q 321 424 263 424 q 438 419 396 424 l 438 457 q 335 563 438 563 q 124 514 265 563 q 76 643 85 557 q 381 706 224 706 q 551 647 485 706 q 618 471 618 589 l 618 186 q 657 83 618 113 m 307 118 q 438 179 376 118 l 438 300 q 394 303 415 301 q 354 304 374 304 q 261 281 293 304 q 229 206 229 258 q 250 141 229 164 q 307 118 271 118 m 399 921 q 478 940 431 940 q 557 921 522 940 q 568 857 568 890 q 563 813 568 831 q 546 788 558 794 q 516 779 533 782 q 478 776 499 776 q 435 781 456 776 q 399 796 414 785 q 390 826 392 810 q 388 858 388 842 q 399 921 388 894 m 129 921 q 208 940 161 940 q 288 921 253 940 q 299 857 299 890 q 294 813 299 831 q 276 788 289 794 q 247 779 264 782 q 208 776 229 776 q 165 781 186 776 q 129 796 144 785 q 120 826 122 810 q 118 858 118 842 q 129 921 118 894 z "},"å":{"ha":708,"x_min":50,"x_max":657,"o":"m 657 83 q 632 31 650 58 q 596 -11 614 3 q 464 68 506 0 q 267 -19 374 -19 q 172 -2 213 -19 q 103 44 131 15 q 63 111 76 74 q 50 189 50 149 q 70 291 50 247 q 127 364 90 335 q 213 408 164 393 q 321 424 263 424 q 438 419 396 424 l 438 457 q 335 563 438 563 q 124 514 265 563 q 76 643 85 557 q 381 706 224 706 q 551 647 485 706 q 618 471 618 589 l 618 186 q 657 83 618 113 m 307 118 q 438 179 376 118 l 438 300 q 394 303 415 301 q 354 304 374 304 q 261 281 293 304 q 229 206 229 258 q 250 141 229 164 q 307 118 271 118 m 211 800 q 161 919 161 847 q 175 986 161 956 q 213 1040 189 1017 q 269 1075 236 1063 q 343 1088 303 1088 q 417 1074 383 1088 q 474 1038 450 1061 q 512 985 499 1015 q 525 919 525 954 q 512 854 525 885 q 474 801 499 824 q 417 765 450 778 q 343 751 383 751 q 211 800 264 751 m 293 972 q 278 948 282 961 q 274 919 274 935 q 292 868 274 889 q 343 847 311 847 q 393 868 374 847 q 413 919 413 889 q 393 972 413 950 q 343 993 374 993 q 316 988 329 993 q 293 972 303 983 z "},"æ":{"ha":1067,"x_min":50,"x_max":1014,"o":"m 999 286 l 618 286 q 653 165 622 208 q 761 122 683 122 q 846 134 800 122 q 943 171 892 146 q 996 60 985 131 q 732 -19 885 -19 q 501 86 578 -19 q 258 -19 400 -19 q 169 -2 208 -19 q 104 44 131 15 q 64 111 78 74 q 50 189 50 149 q 70 291 50 247 q 127 364 90 335 q 213 408 164 393 q 321 424 263 424 q 381 422 353 424 q 438 418 410 421 l 438 458 q 336 563 438 563 q 124 514 258 563 q 76 643 85 557 q 368 706 224 706 q 544 632 483 706 q 743 708 622 708 q 853 687 803 708 q 938 626 903 665 q 994 532 974 586 q 1014 414 1014 478 q 1010 348 1014 379 q 999 286 1006 317 m 307 118 q 454 193 388 118 q 438 300 440 249 q 394 303 415 301 q 354 304 374 304 q 263 281 296 304 q 229 206 229 258 q 250 141 229 164 q 307 118 271 118 m 732 578 q 618 414 626 578 l 843 414 l 843 429 q 817 537 843 496 q 732 578 790 578 z "},"ç":{"ha":657,"x_min":51,"x_max":614,"o":"m 264 -106 q 293 -15 279 -47 q 113 99 174 3 q 51 342 51 196 q 76 506 51 436 q 142 620 100 575 q 237 687 183 665 q 349 708 290 708 q 459 691 410 708 q 542 644 508 674 q 595 574 576 614 q 614 489 614 533 q 591 420 614 444 q 522 396 568 396 q 450 403 499 396 q 428 531 450 490 q 349 572 407 572 q 238 342 238 572 q 269 176 238 228 q 372 125 301 125 q 450 140 408 125 q 536 189 492 156 q 580 144 558 175 q 607 85 601 113 q 393 -17 522 0 q 379 -47 383 -33 q 478 -85 442 -51 q 514 -176 514 -118 q 500 -231 514 -206 q 462 -275 486 -256 q 406 -306 438 -294 q 338 -317 374 -317 q 219 -286 263 -317 q 251 -203 221 -239 q 318 -221 282 -221 q 374 -175 374 -221 q 358 -139 374 -149 q 322 -129 342 -129 q 292 -133 306 -129 q 264 -106 274 -124 z "},"è":{"ha":692,"x_min":51,"x_max":635,"o":"m 619 286 l 236 286 q 272 166 240 210 q 381 122 303 122 q 565 169 461 122 q 617 60 606 128 q 350 -19 506 -19 q 127 72 203 -19 q 51 342 51 163 q 71 492 51 425 q 128 608 90 560 q 219 682 165 656 q 343 708 274 708 q 468 687 414 708 q 560 626 522 665 q 616 532 597 586 q 635 414 635 478 q 631 348 635 379 q 619 286 626 317 m 351 578 q 235 414 243 578 l 465 414 l 465 431 q 438 538 465 497 q 351 578 410 578 m 276 1049 l 483 821 q 452 776 474 796 q 407 749 431 756 l 160 938 q 206 1004 171 972 q 276 1049 240 1036 z "},"é":{"ha":692,"x_min":51,"x_max":635,"o":"m 619 286 l 236 286 q 272 166 240 210 q 381 122 303 122 q 565 169 461 122 q 617 60 606 128 q 350 -19 506 -19 q 127 72 203 -19 q 51 342 51 163 q 71 492 51 425 q 128 608 90 560 q 219 682 165 656 q 343 708 274 708 q 468 687 414 708 q 560 626 522 665 q 616 532 597 586 q 635 414 635 478 q 631 348 635 379 q 619 286 626 317 m 351 578 q 235 414 243 578 l 465 414 l 465 431 q 438 538 465 497 q 351 578 410 578 m 236 821 l 444 1049 q 515 1006 481 1038 q 561 938 549 974 l 313 749 q 236 821 257 767 z "},"ê":{"ha":692,"x_min":51,"x_max":635,"o":"m 619 286 l 236 286 q 272 166 240 210 q 381 122 303 122 q 565 169 461 122 q 617 60 606 128 q 350 -19 506 -19 q 127 72 203 -19 q 51 342 51 163 q 71 492 51 425 q 128 608 90 560 q 219 682 165 656 q 343 708 274 708 q 468 687 414 708 q 560 626 522 665 q 616 532 597 586 q 635 414 635 478 q 631 348 635 379 q 619 286 626 317 m 351 578 q 235 414 243 578 l 465 414 l 465 431 q 438 538 465 497 q 351 578 410 578 m 488 763 l 358 886 l 222 754 q 140 825 169 774 l 286 1013 q 438 1013 353 1035 l 568 839 q 533 791 557 813 q 488 763 510 769 z "},"ë":{"ha":692,"x_min":51,"x_max":635,"o":"m 619 286 l 236 286 q 272 166 240 210 q 381 122 303 122 q 565 169 461 122 q 617 60 606 128 q 350 -19 506 -19 q 127 72 203 -19 q 51 342 51 163 q 71 492 51 425 q 128 608 90 560 q 219 682 165 656 q 343 708 274 708 q 468 687 414 708 q 560 626 522 665 q 616 532 597 586 q 635 414 635 478 q 631 348 635 379 q 619 286 626 317 m 351 578 q 235 414 243 578 l 465 414 l 465 431 q 438 538 465 497 q 351 578 410 578 m 410 921 q 489 940 442 940 q 568 921 533 940 q 579 857 579 890 q 574 813 579 831 q 557 788 569 794 q 527 779 544 782 q 489 776 510 776 q 446 781 467 776 q 410 796 425 785 q 401 826 403 810 q 399 858 399 842 q 410 921 399 894 m 140 921 q 219 940 172 940 q 299 921 264 940 q 310 857 310 890 q 305 813 310 831 q 288 788 300 794 q 258 779 275 782 q 219 776 240 776 q 176 781 197 776 q 140 796 156 785 q 131 826 133 810 q 129 858 129 842 q 140 921 129 894 z "},"ì":{"ha":396,"x_min":-10,"x_max":314,"o":"m 303 549 l 303 0 q 213 -7 261 -7 q 121 0 165 -7 l 121 483 q 58 560 121 560 l 40 560 q 32 624 32 592 q 40 688 32 656 q 146 694 106 694 l 169 694 q 267 656 231 694 q 303 549 303 617 m 107 1049 l 314 821 q 283 776 304 796 q 238 749 261 756 l -10 938 q 36 1004 1 972 q 107 1049 71 1036 z "},"í":{"ha":396,"x_min":32,"x_max":393,"o":"m 303 549 l 303 0 q 213 -7 261 -7 q 121 0 165 -7 l 121 483 q 58 560 121 560 l 40 560 q 32 624 32 592 q 40 688 32 656 q 146 694 106 694 l 169 694 q 267 656 231 694 q 303 549 303 617 m 68 821 l 276 1049 q 347 1006 313 1038 q 393 938 381 974 l 144 749 q 68 821 89 767 z "},"î":{"ha":396,"x_min":-29,"x_max":399,"o":"m 303 549 l 303 0 q 213 -7 261 -7 q 121 0 165 -7 l 121 483 q 58 560 121 560 l 40 560 q 32 624 32 592 q 40 688 32 656 q 146 694 106 694 l 169 694 q 267 656 231 694 q 303 549 303 617 m 318 763 l 189 886 l 53 754 q -29 825 0 774 l 117 1013 q 268 1013 183 1035 l 399 839 q 364 791 388 813 q 318 763 340 769 z "},"ï":{"ha":396,"x_min":-42,"x_max":408,"o":"m 303 549 l 303 0 q 213 -7 261 -7 q 121 0 165 -7 l 121 483 q 58 560 121 560 l 40 560 q 32 624 32 592 q 40 688 32 656 q 146 694 106 694 l 169 694 q 267 656 231 694 q 303 549 303 617 m 239 921 q 318 940 271 940 q 397 921 363 940 q 408 857 408 890 q 403 813 408 831 q 386 788 399 794 q 356 779 374 782 q 318 776 339 776 q 275 781 296 776 q 239 796 254 785 q 230 826 232 810 q 228 858 228 842 q 239 921 228 894 m -31 921 q 49 940 1 940 q 128 921 93 940 q 139 857 139 890 q 134 813 139 831 q 117 788 129 794 q 87 779 104 782 q 49 776 69 776 q 6 781 26 776 q -31 796 -15 785 q -40 826 -37 810 q -42 858 -42 842 q -31 921 -42 894 z "},"ð":{"ha":721,"x_min":49,"x_max":669,"o":"m 135 793 l 244 868 q 146 931 201 900 q 171 996 150 963 q 217 1042 192 1029 q 372 956 299 1008 l 490 1038 q 553 950 540 1004 l 458 885 q 669 343 669 681 q 649 192 669 260 q 588 78 628 125 q 490 6 549 32 q 358 -19 432 -19 q 227 6 285 -19 q 130 78 169 32 q 69 190 90 125 q 49 332 49 254 q 70 474 49 411 q 131 583 92 538 q 224 652 169 628 q 346 676 279 676 q 422 660 382 676 q 328 796 397 726 l 196 706 q 135 793 144 743 m 483 343 q 467 514 483 444 q 361 546 414 546 q 235 331 235 546 q 358 115 235 115 q 483 343 483 115 z "},"ñ":{"ha":758,"x_min":96,"x_max":697,"o":"m 668 464 l 668 161 q 697 29 668 72 q 590 -10 653 -10 q 508 17 531 -10 q 486 103 486 44 l 486 426 q 471 514 486 489 q 414 539 456 539 q 276 472 340 539 l 276 0 q 233 -6 256 -4 q 186 -7 210 -7 q 140 -6 163 -7 q 96 0 117 -4 l 96 688 l 104 697 l 174 697 q 271 614 251 697 q 472 701 372 701 q 620 637 572 701 q 668 464 668 572 m 397 794 l 329 828 q 310 837 319 833 q 289 840 300 840 q 263 833 276 840 q 235 807 249 826 l 221 788 q 169 804 194 789 q 135 843 144 819 l 147 871 q 210 954 167 926 q 301 982 254 982 q 381 960 346 982 l 449 925 q 469 916 460 919 q 490 913 479 913 q 543 947 514 911 l 557 965 q 608 949 582 965 q 643 910 633 933 l 631 883 q 481 772 576 772 q 397 794 436 772 z "},"ò":{"ha":724,"x_min":51,"x_max":672,"o":"m 574 631 q 672 344 672 532 q 651 194 672 261 q 591 79 631 126 q 493 6 551 32 q 361 -19 435 -19 q 230 6 288 -19 q 133 79 172 32 q 72 194 93 126 q 51 344 51 261 q 132 610 51 513 q 361 708 213 708 q 574 631 492 708 m 361 572 q 238 344 238 572 q 361 118 238 118 q 486 344 486 118 q 361 572 486 572 m 285 1049 l 492 821 q 460 776 482 796 q 415 749 439 756 l 168 938 q 214 1004 179 972 q 285 1049 249 1036 z "},"ó":{"ha":724,"x_min":51,"x_max":672,"o":"m 574 631 q 672 344 672 532 q 651 194 672 261 q 591 79 631 126 q 493 6 551 32 q 361 -19 435 -19 q 230 6 288 -19 q 133 79 172 32 q 72 194 93 126 q 51 344 51 261 q 132 610 51 513 q 361 708 213 708 q 574 631 492 708 m 361 572 q 238 344 238 572 q 361 118 238 118 q 486 344 486 118 q 361 572 486 572 m 244 821 l 453 1049 q 523 1006 489 1038 q 569 938 557 974 l 321 749 q 244 821 265 767 z "},"ô":{"ha":724,"x_min":51,"x_max":672,"o":"m 574 631 q 672 344 672 532 q 651 194 672 261 q 591 79 631 126 q 493 6 551 32 q 361 -19 435 -19 q 230 6 288 -19 q 133 79 172 32 q 72 194 93 126 q 51 344 51 261 q 132 610 51 513 q 361 708 213 708 q 574 631 492 708 m 361 572 q 238 344 238 572 q 361 118 238 118 q 486 344 486 118 q 361 572 486 572 m 494 763 l 365 886 l 229 754 q 147 825 176 774 l 293 1013 q 444 1013 360 1035 l 575 839 q 540 791 564 813 q 494 763 517 769 z "},"õ":{"ha":724,"x_min":51,"x_max":672,"o":"m 574 631 q 672 344 672 532 q 651 194 672 261 q 591 79 631 126 q 493 6 551 32 q 361 -19 435 -19 q 230 6 288 -19 q 133 79 172 32 q 72 194 93 126 q 51 344 51 261 q 132 610 51 513 q 361 708 213 708 q 574 631 492 708 m 361 572 q 238 344 238 572 q 361 118 238 118 q 486 344 486 118 q 361 572 486 572 m 369 794 l 301 828 q 282 837 292 833 q 261 840 272 840 q 235 833 249 840 q 207 807 221 826 l 193 788 q 142 804 167 789 q 107 843 117 819 l 119 871 q 183 954 139 926 q 274 982 226 982 q 353 960 318 982 l 421 925 q 442 916 432 919 q 463 913 451 913 q 515 947 486 911 l 529 965 q 580 949 554 965 q 615 910 606 933 l 603 883 q 453 772 549 772 q 369 794 408 772 z "},"ö":{"ha":724,"x_min":51,"x_max":672,"o":"m 574 631 q 672 344 672 532 q 651 194 672 261 q 591 79 631 126 q 493 6 551 32 q 361 -19 435 -19 q 230 6 288 -19 q 133 79 172 32 q 72 194 93 126 q 51 344 51 261 q 132 610 51 513 q 361 708 213 708 q 574 631 492 708 m 361 572 q 238 344 238 572 q 361 118 238 118 q 486 344 486 118 q 361 572 486 572 m 417 921 q 496 940 449 940 q 575 921 540 940 q 586 857 586 890 q 581 813 586 831 q 564 788 576 794 q 534 779 551 782 q 496 776 517 776 q 453 781 474 776 q 417 796 432 785 q 408 826 410 810 q 406 858 406 842 q 417 921 406 894 m 147 921 q 226 940 179 940 q 306 921 271 940 q 317 857 317 890 q 312 813 317 831 q 294 788 307 794 q 265 779 282 782 q 226 776 247 776 q 183 781 204 776 q 147 796 163 785 q 138 826 140 810 q 136 858 136 842 q 147 921 136 894 z "},"÷":{"ha":736,"x_min":68,"x_max":668,"o":"m 285 593 q 271 660 271 621 q 291 731 275 722 q 369 744 307 739 q 442 730 419 743 q 464 660 464 717 q 444 590 464 603 q 367 575 425 576 q 285 593 311 575 m 285 97 q 271 163 271 124 q 294 234 271 224 q 369 247 317 244 q 442 233 419 244 q 464 163 464 222 q 442 92 464 103 q 367 79 421 81 q 285 97 311 79 m 661 338 l 75 338 q 69 372 71 353 q 68 411 68 390 q 69 451 68 431 q 75 488 71 471 l 661 488 q 666 451 664 471 q 668 411 668 431 q 661 338 668 369 z "},"ø":{"ha":728,"x_min":53,"x_max":674,"o":"m 576 629 q 674 344 674 532 q 593 78 674 175 q 364 -19 513 -19 q 242 1 296 -19 l 193 -81 q 97 -28 133 -68 l 149 63 q 53 346 53 158 q 73 496 53 429 q 133 610 93 563 q 231 683 172 657 q 364 708 289 708 q 483 688 429 708 l 532 772 q 628 719 594 757 l 576 629 m 504 346 q 490 469 504 418 l 308 122 q 364 111 335 111 q 504 346 504 111 m 222 346 q 236 222 222 268 l 418 568 q 364 579 392 579 q 222 346 222 579 z "},"ù":{"ha":761,"x_min":61,"x_max":703,"o":"m 90 225 l 90 529 q 61 661 90 615 q 167 700 107 700 q 250 672 228 700 q 272 586 272 643 l 272 263 q 288 177 272 203 q 344 151 303 151 q 482 215 418 151 l 482 689 q 572 696 513 696 q 664 689 631 696 l 664 196 q 703 81 664 114 q 678 29 696 56 q 642 -11 661 3 q 501 88 540 -1 q 281 -12 394 -12 q 139 53 188 -12 q 90 225 90 118 m 293 1049 l 500 821 q 469 776 490 796 q 424 749 447 756 l 176 938 q 222 1004 188 972 q 293 1049 257 1036 z "},"ú":{"ha":761,"x_min":61,"x_max":703,"o":"m 90 225 l 90 529 q 61 661 90 615 q 167 700 107 700 q 250 672 228 700 q 272 586 272 643 l 272 263 q 288 177 272 203 q 344 151 303 151 q 482 215 418 151 l 482 689 q 572 696 513 696 q 664 689 631 696 l 664 196 q 703 81 664 114 q 678 29 696 56 q 642 -11 661 3 q 501 88 540 -1 q 281 -12 394 -12 q 139 53 188 -12 q 90 225 90 118 m 256 821 l 464 1049 q 534 1006 500 1038 q 581 938 568 974 l 332 749 q 256 821 276 767 z "},"û":{"ha":761,"x_min":61,"x_max":703,"o":"m 90 225 l 90 529 q 61 661 90 615 q 167 700 107 700 q 250 672 228 700 q 272 586 272 643 l 272 263 q 288 177 272 203 q 344 151 303 151 q 482 215 418 151 l 482 689 q 572 696 513 696 q 664 689 631 696 l 664 196 q 703 81 664 114 q 678 29 696 56 q 642 -11 661 3 q 501 88 540 -1 q 281 -12 394 -12 q 139 53 188 -12 q 90 225 90 118 m 503 763 l 374 886 l 238 754 q 156 825 185 774 l 301 1013 q 453 1013 368 1035 l 583 839 q 549 791 572 813 q 503 763 525 769 z "},"ü":{"ha":761,"x_min":61,"x_max":703,"o":"m 90 225 l 90 529 q 61 661 90 615 q 167 700 107 700 q 250 672 228 700 q 272 586 272 643 l 272 263 q 288 177 272 203 q 344 151 303 151 q 482 215 418 151 l 482 689 q 572 696 513 696 q 664 689 631 696 l 664 196 q 703 81 664 114 q 678 29 696 56 q 642 -11 661 3 q 501 88 540 -1 q 281 -12 394 -12 q 139 53 188 -12 q 90 225 90 118 m 425 921 q 504 940 457 940 q 583 921 549 940 q 594 857 594 890 q 590 813 594 831 q 572 788 585 794 q 542 779 560 782 q 504 776 525 776 q 461 781 482 776 q 425 796 440 785 q 416 826 418 810 q 414 858 414 842 q 425 921 414 894 m 156 921 q 235 940 188 940 q 314 921 279 940 q 325 857 325 890 q 320 813 325 831 q 303 788 315 794 q 273 779 290 782 q 235 776 256 776 q 192 781 213 776 q 156 796 171 785 q 147 826 149 810 q 144 858 144 842 q 156 921 144 894 z "},"ý":{"ha":671,"x_min":1,"x_max":660,"o":"m 660 672 l 482 19 q 366 -225 436 -146 q 156 -304 296 -304 q 4 -278 78 -304 q 13 -208 1 -247 q 42 -149 24 -169 q 157 -168 103 -168 q 307 -26 264 -168 l 313 -8 q 229 11 260 -7 q 186 72 199 29 l 14 675 q 115 701 71 701 q 181 684 160 701 q 215 622 203 667 l 294 329 q 335 136 303 297 q 347 126 336 126 l 483 689 q 564 697 515 697 q 653 683 613 697 l 660 672 m 217 821 l 425 1049 q 495 1006 461 1038 q 542 938 529 974 l 293 749 q 217 821 238 767 z "},"þ":{"ha":738,"x_min":96,"x_max":685,"o":"m 418 -12 q 271 24 346 -12 l 271 -187 q 249 -275 271 -250 q 172 -300 226 -300 l 104 -300 l 96 -290 l 96 1013 l 104 1022 l 172 1022 q 249 997 226 1022 q 271 910 271 972 l 271 639 q 440 703 347 703 q 619 608 554 703 q 685 346 685 513 q 663 196 685 263 q 605 83 642 129 q 520 13 568 38 q 418 -12 472 -12 m 396 556 q 271 485 322 556 l 271 165 q 381 125 332 125 q 467 183 435 125 q 500 349 500 240 q 471 506 500 457 q 396 556 442 556 z "},"ÿ":{"ha":671,"x_min":1,"x_max":660,"o":"m 660 672 l 482 19 q 366 -225 436 -146 q 156 -304 296 -304 q 4 -278 78 -304 q 13 -208 1 -247 q 42 -149 24 -169 q 157 -168 103 -168 q 307 -26 264 -168 l 313 -8 q 229 11 260 -7 q 186 72 199 29 l 14 675 q 115 701 71 701 q 181 684 160 701 q 215 622 203 667 l 294 329 q 335 136 303 297 q 347 126 336 126 l 483 689 q 564 697 515 697 q 653 683 613 697 l 660 672 m 389 921 q 468 940 421 940 q 547 921 513 940 q 558 857 558 890 q 553 813 558 831 q 536 788 549 794 q 506 779 524 782 q 468 776 489 776 q 425 781 446 776 q 389 796 404 785 q 380 826 382 810 q 378 858 378 842 q 389 921 378 894 m 119 921 q 199 940 151 940 q 278 921 243 940 q 289 857 289 890 q 284 813 289 831 q 267 788 279 794 q 237 779 254 782 q 199 776 219 776 q 156 781 176 776 q 119 796 135 785 q 110 826 113 810 q 108 858 108 842 q 119 921 108 894 z "},"Ą":{"ha":868,"x_min":19,"x_max":906,"o":"m 592 215 l 524 214 l 329 214 q 261 215 283 214 l 196 -1 q 113 -8 167 -8 q 26 4 60 -8 l 19 14 l 329 949 q 440 956 381 956 q 544 947 500 956 l 849 13 q 728 -131 728 -57 q 747 -172 728 -157 q 781 -186 767 -186 q 810 -186 796 -186 q 865 -165 825 -186 q 906 -250 901 -197 q 758 -303 839 -303 q 635 -266 679 -303 q 592 -168 592 -229 q 685 0 592 -79 q 631 89 650 19 l 592 215 m 307 363 l 369 364 l 489 364 q 547 363 536 363 l 506 504 q 431 774 458 663 l 422 774 q 361 539 410 714 l 307 363 z "},"ą":{"ha":749,"x_min":50,"x_max":696,"o":"m 657 -165 q 696 -250 694 -200 q 551 -303 631 -303 q 426 -267 471 -303 q 382 -168 382 -231 q 504 26 382 -62 q 465 69 478 49 q 265 -19 372 -19 q 171 -2 211 -19 q 103 44 131 15 q 63 111 76 74 q 50 189 50 149 q 70 291 50 247 q 127 364 90 335 q 213 408 164 393 q 321 424 263 424 q 438 419 396 424 l 438 457 q 335 563 438 563 q 124 514 265 563 q 76 643 85 557 q 381 706 224 706 q 551 647 485 706 q 618 471 618 589 l 618 186 q 661 85 618 118 q 634 33 654 58 q 582 -22 614 7 q 519 -131 519 -79 q 538 -171 519 -154 q 586 -187 556 -187 q 657 -165 618 -187 m 307 118 q 438 179 376 118 l 438 300 q 394 303 415 301 q 354 304 374 304 q 265 281 300 304 q 229 206 229 258 q 250 141 229 164 q 307 118 271 118 z "},"Ć":{"ha":842,"x_min":58,"x_max":799,"o":"m 619 594 l 619 608 q 610 692 619 654 q 579 759 600 731 q 526 803 558 788 q 447 819 493 819 q 300 728 346 819 q 254 453 254 638 q 310 224 254 306 q 464 143 367 143 q 576 167 515 143 q 706 244 636 192 q 761 190 735 225 q 794 124 788 156 q 723 67 764 93 q 635 22 682 42 q 536 -8 588 3 q 433 -19 485 -19 q 260 20 331 -19 q 144 127 189 60 q 78 283 99 194 q 58 471 58 372 q 89 690 58 596 q 172 845 119 783 q 294 938 224 907 q 443 969 364 969 q 591 947 525 969 q 703 887 657 925 q 774 798 749 849 q 799 689 799 747 q 693 585 799 585 q 660 587 678 585 q 619 594 642 589 m 293 1100 l 589 1279 q 638 1219 614 1260 q 664 1139 661 1178 l 346 1011 q 311 1049 326 1022 q 293 1100 296 1075 z "},"ć":{"ha":657,"x_min":51,"x_max":614,"o":"m 450 403 q 430 529 450 486 q 349 572 410 572 q 238 342 238 572 q 269 176 238 228 q 372 125 301 125 q 450 140 408 125 q 536 189 492 156 q 580 144 558 175 q 607 85 601 113 q 491 9 560 38 q 347 -19 422 -19 q 126 80 201 -19 q 51 353 51 179 q 76 508 51 442 q 142 619 100 575 q 237 686 183 664 q 349 708 290 708 q 459 691 410 708 q 542 644 508 674 q 595 574 576 614 q 614 489 614 533 q 591 420 614 444 q 522 396 568 396 q 450 403 481 396 m 232 821 l 440 1049 q 510 1006 476 1038 q 557 938 544 974 l 308 749 q 232 821 253 767 z "},"Č":{"ha":842,"x_min":58,"x_max":799,"o":"m 619 594 l 619 608 q 610 692 619 654 q 579 759 600 731 q 526 803 558 788 q 447 819 493 819 q 300 728 346 819 q 254 453 254 638 q 310 224 254 306 q 464 143 367 143 q 576 167 515 143 q 706 244 636 192 q 761 190 735 225 q 794 124 788 156 q 723 67 764 93 q 635 22 682 42 q 536 -8 588 3 q 433 -19 485 -19 q 260 20 331 -19 q 144 127 189 60 q 78 283 99 194 q 58 471 58 372 q 89 690 58 596 q 172 845 119 783 q 294 938 224 907 q 443 969 364 969 q 591 947 525 969 q 703 887 657 925 q 774 798 749 849 q 799 689 799 747 q 693 585 799 585 q 660 587 678 585 q 619 594 642 589 m 286 1258 l 446 1156 l 610 1272 q 656 1242 632 1264 q 688 1197 681 1221 l 524 1033 q 368 1032 454 1015 l 211 1182 q 242 1230 219 1208 q 286 1258 265 1251 z "},"č":{"ha":657,"x_min":51,"x_max":614,"o":"m 450 403 q 430 529 450 486 q 349 572 410 572 q 238 342 238 572 q 269 176 238 228 q 372 125 301 125 q 450 140 408 125 q 536 189 492 156 q 580 144 558 175 q 607 85 601 113 q 491 9 560 38 q 347 -19 422 -19 q 126 80 201 -19 q 51 353 51 179 q 76 508 51 442 q 142 619 100 575 q 237 686 183 664 q 349 708 290 708 q 459 691 410 708 q 542 644 508 674 q 595 574 576 614 q 614 489 614 533 q 591 420 614 444 q 522 396 568 396 q 450 403 481 396 m 218 1028 l 346 904 l 485 1038 q 567 965 540 1017 l 418 776 q 343 767 386 767 q 268 776 300 768 l 136 951 q 172 999 147 978 q 218 1028 196 1019 z "},"Ď":{"ha":914,"x_min":115,"x_max":853,"o":"m 701 63 q 588 10 660 26 q 442 -7 517 -7 q 326 -6 404 -7 q 125 -1 247 -4 l 115 7 l 115 942 l 125 950 q 287 954 206 953 q 453 956 368 956 q 647 918 569 956 q 769 815 724 881 q 834 661 815 749 q 853 474 853 574 q 822 234 853 335 q 701 63 790 133 m 625 697 q 453 808 583 808 q 367 808 404 808 q 301 810 329 808 l 301 139 q 362 140 328 140 q 431 142 396 140 q 495 147 465 143 q 544 161 525 151 q 603 213 581 181 q 639 288 626 246 q 656 380 651 331 q 661 482 661 429 q 653 593 661 542 q 625 697 646 644 m 274 1258 l 433 1156 l 597 1272 q 644 1242 619 1264 q 675 1197 668 1221 l 511 1033 q 356 1032 442 1015 l 199 1182 q 230 1230 207 1208 q 274 1258 253 1251 z "},"ď":{"ha":878,"x_min":53,"x_max":900,"o":"m 325 703 q 467 665 392 703 l 467 1013 l 476 1022 l 546 1022 q 622 997 600 1022 q 644 910 644 972 l 644 199 q 683 83 644 114 q 660 31 678 58 q 624 -11 643 3 q 493 71 533 -3 q 294 -19 411 -19 q 190 6 235 -19 q 114 78 144 32 q 68 192 83 125 q 53 342 53 258 q 74 493 53 426 q 133 606 96 560 q 219 678 169 653 q 325 703 268 703 m 342 129 q 467 199 414 129 l 467 524 q 408 553 436 543 q 357 564 381 564 q 270 507 303 564 q 238 339 238 450 q 267 180 238 231 q 342 129 296 129 m 726 785 l 743 1097 q 825 1100 776 1107 q 900 1074 874 1093 l 831 778 q 776 772 807 769 q 726 785 744 774 z "},"Ę":{"ha":794,"x_min":114,"x_max":735,"o":"m 299 238 l 297 151 q 394 154 356 154 l 735 154 q 731 86 735 110 q 663 4 722 29 q 578 -56 608 -18 q 549 -131 549 -94 q 610 -186 549 -186 q 685 -165 649 -186 q 725 -250 721 -197 q 618 -299 657 -294 q 539 -301 579 -304 q 455 -263 499 -297 q 411 -167 411 -229 q 501 -3 411 -74 l 221 -3 q 142 27 171 -3 q 114 108 114 57 l 114 939 l 124 949 l 703 949 q 710 874 710 914 q 694 792 710 835 l 297 792 l 299 696 l 299 553 q 389 554 333 554 l 624 554 q 635 478 635 522 q 624 401 635 433 l 299 401 l 299 238 z "},"ę":{"ha":692,"x_min":51,"x_max":635,"o":"m 619 286 l 236 286 q 272 166 240 210 q 381 122 303 122 q 565 169 461 122 q 617 60 606 128 q 526 13 576 31 q 435 -131 435 -57 q 496 -186 435 -186 q 572 -165 536 -186 q 611 -250 610 -200 q 465 -303 543 -303 q 342 -267 386 -303 q 297 -160 297 -231 q 374 -18 297 -90 q 350 -19 368 -19 q 127 72 203 -19 q 51 342 51 163 q 71 492 51 425 q 128 608 90 560 q 219 682 165 656 q 343 708 274 708 q 468 687 414 708 q 560 626 522 665 q 616 532 597 586 q 635 414 635 478 q 631 348 635 379 q 619 286 626 317 m 351 578 q 235 414 243 578 l 465 414 l 465 431 q 438 538 465 497 q 351 578 410 578 z "},"Ě":{"ha":792,"x_min":114,"x_max":735,"o":"m 299 238 l 297 151 l 394 154 l 735 154 q 731 86 735 110 q 611 -3 715 -3 l 221 -3 q 142 27 171 -3 q 114 108 114 57 l 114 939 l 124 949 l 703 949 q 710 874 710 914 q 694 792 710 835 l 297 792 l 299 696 l 299 553 l 389 554 l 624 554 q 635 478 635 522 q 624 401 635 433 l 299 401 l 299 238 m 250 1258 l 410 1156 l 574 1272 q 620 1242 596 1264 q 651 1197 644 1221 l 488 1033 q 332 1032 418 1015 l 175 1182 q 206 1230 183 1208 q 250 1258 229 1251 z "},"ě":{"ha":692,"x_min":51,"x_max":635,"o":"m 619 286 l 236 286 q 272 166 240 210 q 381 122 303 122 q 565 169 461 122 q 617 60 606 128 q 350 -19 506 -19 q 127 72 203 -19 q 51 342 51 163 q 71 492 51 425 q 128 608 90 560 q 219 682 165 656 q 343 708 274 708 q 468 687 414 708 q 560 626 522 665 q 616 532 597 586 q 635 414 635 478 q 631 348 635 379 q 619 286 626 317 m 351 578 q 235 414 243 578 l 465 414 l 465 431 q 438 538 465 497 q 351 578 410 578 m 222 1028 l 350 904 l 489 1038 q 571 965 544 1017 l 422 776 q 347 767 390 767 q 272 776 304 768 l 140 951 q 176 999 151 978 q 222 1028 200 1019 z "},"Ħ":{"ha":957,"x_min":18,"x_max":939,"o":"m 307 410 l 308 307 l 308 0 q 213 -7 269 -7 q 121 0 157 -7 l 121 682 l 28 682 q 18 751 18 715 q 28 821 18 786 l 121 821 l 121 949 q 213 956 157 956 q 308 949 269 956 l 308 821 l 649 821 l 649 949 q 743 956 686 956 q 836 949 800 956 l 836 821 l 931 821 q 939 750 939 783 q 931 682 939 717 l 836 682 l 836 0 q 742 -7 797 -7 q 649 0 686 -7 l 649 307 l 650 410 l 576 408 l 381 408 l 307 410 m 307 563 l 381 564 l 576 564 l 650 563 l 649 667 l 649 682 l 308 682 l 308 667 l 307 563 z "},"ħ":{"ha":758,"x_min":-10,"x_max":697,"o":"m 276 910 l 276 897 l 488 900 q 494 839 494 868 q 488 782 494 810 l 276 783 l 276 617 q 472 701 374 701 q 620 637 572 701 q 668 464 668 572 l 668 161 q 697 29 668 72 q 590 -10 653 -10 q 508 17 531 -10 q 486 103 486 44 l 486 426 q 471 514 486 489 q 414 539 456 539 q 276 472 340 539 l 276 0 q 234 -6 256 -4 q 189 -7 213 -7 q 144 -6 167 -7 q 100 0 122 -4 l 100 783 l -1 782 q -10 839 -10 813 q -1 900 -10 863 l 100 897 l 100 1013 l 108 1022 l 179 1022 q 255 997 233 1022 q 276 910 276 972 z "},"Ĩ":{"ha":425,"x_min":-51,"x_max":479,"o":"m 119 0 l 119 949 q 210 956 154 956 q 306 949 267 956 l 306 0 q 210 -7 267 -7 q 119 0 154 -7 m 222 1053 l 151 1086 q 131 1095 142 1092 q 108 1099 119 1099 q 54 1065 79 1100 l 40 1046 q -15 1063 13 1047 q -51 1101 -42 1078 l -39 1128 q 119 1240 13 1240 q 161 1235 140 1242 q 206 1217 182 1228 l 276 1183 q 298 1174 288 1178 q 319 1171 308 1171 q 374 1204 349 1169 l 388 1222 q 442 1207 415 1222 q 479 1168 469 1192 l 467 1142 q 308 1029 414 1029 q 222 1053 265 1029 z "},"ĩ":{"ha":396,"x_min":-69,"x_max":439,"o":"m 303 549 l 303 0 q 213 -7 261 -7 q 121 0 165 -7 l 121 483 q 58 560 121 560 l 40 560 q 32 624 32 592 q 40 688 32 656 q 146 694 106 694 l 169 694 q 267 656 231 694 q 303 549 303 617 m 193 794 l 125 828 q 106 837 115 833 q 85 840 96 840 q 58 833 72 840 q 31 807 44 826 l 17 788 q -35 804 -10 789 q -69 843 -60 819 l -57 871 q 6 954 -37 926 q 97 982 50 982 q 176 960 142 982 l 244 925 q 265 916 256 919 q 286 913 275 913 q 339 947 310 911 l 353 965 q 403 949 378 965 q 439 910 429 933 l 426 883 q 276 772 372 772 q 193 794 232 772 z "},"ı":{"ha":396,"x_min":32,"x_max":303,"o":"m 303 549 l 303 0 q 213 -7 261 -7 q 121 0 165 -7 l 121 483 q 58 560 121 560 l 40 560 q 32 624 32 592 q 40 688 32 656 q 146 694 106 694 l 169 694 q 267 656 231 694 q 303 549 303 617 z "},"Ĳ":{"ha":1057,"x_min":119,"x_max":957,"o":"m 119 0 l 119 949 q 210 956 154 956 q 306 949 267 956 l 306 0 q 210 -7 267 -7 q 119 0 154 -7 m 499 185 q 642 140 572 140 q 742 187 713 140 q 771 335 771 233 l 771 949 q 864 956 810 956 q 957 949 918 956 l 957 356 q 944 204 957 272 q 896 87 931 136 q 803 12 861 38 q 653 -14 744 -14 q 432 46 529 -14 q 499 185 446 124 z "},"ĳ":{"ha":792,"x_min":32,"x_max":699,"o":"m 303 549 l 303 0 q 259 -6 282 -4 q 213 -7 236 -7 q 166 -6 189 -7 q 121 0 143 -4 l 121 483 q 58 560 121 560 l 40 560 q 32 624 32 590 q 40 688 32 654 q 99 692 72 690 q 146 694 126 694 l 169 694 q 267 656 232 694 q 303 549 303 617 m 93 957 q 185 975 125 975 q 241 969 219 975 q 272 956 263 964 q 285 928 282 949 q 288 885 288 907 q 270 807 283 814 q 183 793 257 800 q 92 814 106 796 q 79 885 79 832 q 93 957 79 925 m 699 549 l 699 33 q 690 -99 699 -43 q 655 -196 681 -156 q 583 -262 629 -236 q 464 -306 538 -289 q 414 -194 418 -267 q 465 -166 444 -181 q 497 -131 485 -151 q 515 -85 510 -111 q 521 -24 521 -60 l 521 483 q 457 560 521 560 l 426 560 q 418 624 418 590 q 426 688 418 654 q 492 692 463 690 q 544 694 521 694 l 569 694 q 664 656 629 694 q 699 549 699 617 m 488 957 q 579 975 519 975 q 635 969 614 975 q 665 956 656 964 q 678 927 675 947 q 682 885 682 907 q 658 804 675 811 q 578 793 642 797 q 488 813 503 796 q 474 885 474 831 q 488 957 474 925 z "},"Ĵ":{"ha":639,"x_min":14,"x_max":678,"o":"m 81 185 q 224 140 154 140 q 324 187 294 140 q 353 335 353 233 l 353 949 q 446 956 392 956 q 539 949 500 956 l 539 356 q 526 204 539 272 q 478 87 513 136 q 385 12 443 38 q 235 -14 326 -14 q 14 46 111 -14 q 81 185 28 124 m 604 1022 l 444 1125 l 281 1008 q 235 1039 258 1017 q 204 1086 211 1061 l 367 1249 q 521 1249 446 1265 l 678 1099 q 648 1051 669 1072 q 604 1022 626 1031 z "},"ĵ":{"ha":406,"x_min":-18,"x_max":410,"o":"m 311 549 l 311 33 q 303 -97 311 -47 q 272 -190 296 -146 q 200 -262 247 -235 q 76 -306 153 -289 q 26 -194 31 -265 q 110 -131 88 -167 q 133 -24 133 -96 l 133 483 q 69 560 133 560 l 39 560 q 31 624 31 592 q 39 688 31 656 q 157 694 111 694 l 182 694 q 276 656 242 694 q 311 549 311 617 m 329 763 l 200 886 l 64 754 q -18 825 11 774 l 128 1013 q 279 1013 194 1035 l 410 839 q 375 791 399 813 q 329 763 351 769 z "},"Ķ":{"ha":846,"x_min":115,"x_max":831,"o":"m 831 47 q 706 -11 792 -11 q 633 14 657 -11 q 589 99 608 39 l 525 281 q 467 383 500 353 q 379 413 435 413 q 301 410 365 413 l 301 0 q 208 -7 265 -7 q 115 0 151 -7 l 115 949 q 208 956 151 956 q 301 949 265 956 l 301 567 l 357 568 q 390 577 379 568 q 415 611 401 586 l 569 886 q 611 940 590 924 q 669 956 632 956 q 782 950 707 956 l 793 936 l 604 599 q 536 513 572 542 q 636 459 601 499 q 697 349 671 419 l 763 163 q 774 133 772 138 q 783 111 776 128 q 814 63 803 72 q 831 47 825 53 m 536 -82 q 551 -160 551 -115 q 500 -296 551 -236 q 358 -386 449 -356 q 301 -311 314 -371 q 389 -175 389 -257 q 371 -101 389 -133 q 450 -74 403 -79 q 536 -82 497 -68 z "},"ķ":{"ha":713,"x_min":96,"x_max":696,"o":"m 589 268 l 629 160 q 696 46 660 72 q 574 -10 647 -10 q 511 10 532 -10 q 472 79 490 31 l 425 207 q 385 271 407 254 q 335 288 364 288 q 272 285 306 288 l 272 0 q 184 -7 231 -7 q 96 0 138 -7 l 96 1013 l 104 1022 l 175 1022 q 251 997 229 1022 q 272 910 272 971 l 272 436 l 307 438 q 343 460 331 438 l 439 625 q 547 694 476 694 q 647 692 581 694 l 656 681 l 526 458 q 468 390 504 415 q 589 268 553 363 m 465 -82 q 481 -160 481 -115 q 429 -296 481 -236 q 288 -386 378 -356 q 231 -311 243 -371 q 318 -175 318 -257 q 300 -101 318 -133 q 379 -74 332 -79 q 465 -82 426 -68 z "},"ĸ":{"ha":713,"x_min":96,"x_max":696,"o":"m 589 268 l 629 160 q 696 46 660 72 q 574 -10 647 -10 q 511 10 532 -10 q 472 79 490 31 l 425 207 q 385 271 407 254 q 335 288 364 288 q 272 285 306 288 l 272 0 q 184 -7 231 -7 q 96 0 138 -7 l 96 688 l 104 697 l 175 697 q 251 672 229 697 q 272 586 272 647 l 272 436 l 307 438 q 343 460 331 438 l 439 625 q 547 694 476 694 q 647 692 581 694 l 656 681 l 526 458 q 468 390 504 415 q 589 268 553 363 z "},"Ŀ":{"ha":718,"x_min":114,"x_max":686,"o":"m 428 158 l 686 158 q 681 88 686 117 q 560 -3 665 -3 l 222 -3 q 143 27 172 -3 q 114 108 114 57 l 114 947 l 124 957 l 193 957 q 275 928 249 957 q 301 838 301 900 l 301 153 q 428 158 361 158 m 478 571 q 563 592 515 592 q 644 571 607 592 q 654 536 651 556 q 657 497 657 517 q 644 424 657 453 q 563 401 617 401 q 522 406 539 401 q 494 415 506 410 q 478 424 483 419 q 471 447 474 431 q 467 497 468 464 q 478 571 467 542 z "},"ŀ":{"ha":524,"x_min":93,"x_max":538,"o":"m 329 133 l 372 133 q 388 58 388 94 q 383 6 388 22 q 249 -7 299 -7 q 131 34 168 -7 q 93 163 93 75 l 93 1013 l 103 1022 l 172 1022 q 249 997 226 1022 q 271 910 271 971 l 271 197 q 329 133 271 133 m 358 571 q 443 592 396 592 q 525 571 488 592 q 535 536 532 556 q 538 497 538 517 q 525 424 538 453 q 443 401 497 401 q 403 406 419 401 q 375 415 386 410 q 358 424 364 419 q 351 447 354 431 q 347 497 349 464 q 358 571 347 542 z "},"Ł":{"ha":731,"x_min":-3,"x_max":697,"o":"m 313 838 l 313 585 l 542 665 l 556 658 q 558 521 574 604 l 313 438 l 313 153 q 440 158 372 158 l 697 158 q 693 88 697 110 q 571 -3 678 -3 l 235 -3 q 156 27 185 -3 q 126 108 126 57 l 126 381 l 31 346 l 17 353 q 14 492 -3 414 l 126 529 l 126 947 l 136 957 l 204 957 q 286 928 260 957 q 313 838 313 900 z "},"ł":{"ha":485,"x_min":13,"x_max":453,"o":"m 374 133 l 418 133 q 432 57 432 97 q 429 6 432 17 q 294 -7 344 -7 q 176 34 214 -7 q 139 163 139 75 l 139 393 l 44 346 l 31 353 q 28 485 13 411 l 139 540 l 139 1013 l 149 1022 l 217 1022 q 293 997 271 1022 q 315 910 315 971 l 315 629 l 422 683 l 435 676 q 438 544 453 621 l 315 482 l 315 197 q 374 133 315 133 z "},"Ń":{"ha":956,"x_min":115,"x_max":840,"o":"m 831 957 l 840 947 l 840 3 q 732 -7 797 -7 q 618 0 667 -7 l 363 538 q 279 732 307 660 l 274 731 q 289 353 289 535 l 289 0 q 201 -7 250 -7 q 115 0 151 -7 l 115 946 q 221 956 156 956 q 335 949 286 956 l 588 411 l 678 206 l 682 207 q 668 588 668 408 l 668 842 q 692 931 668 904 q 771 957 715 957 l 831 957 m 325 1100 l 621 1279 q 669 1219 646 1260 q 696 1139 693 1178 l 378 1011 q 343 1049 358 1022 q 325 1100 328 1075 z "},"ń":{"ha":758,"x_min":96,"x_max":697,"o":"m 668 464 l 668 161 q 697 29 668 72 q 590 -10 653 -10 q 508 17 531 -10 q 486 103 486 44 l 486 426 q 471 514 486 489 q 414 539 456 539 q 276 472 340 539 l 276 0 q 233 -6 256 -4 q 186 -7 210 -7 q 140 -6 163 -7 q 96 0 117 -4 l 96 688 l 104 697 l 174 697 q 271 614 251 697 q 472 701 372 701 q 620 637 572 701 q 668 464 668 572 m 271 821 l 479 1049 q 549 1006 515 1038 q 596 938 583 974 l 347 749 q 271 821 292 767 z "},"Ň":{"ha":956,"x_min":115,"x_max":840,"o":"m 831 957 l 840 947 l 840 3 q 732 -7 797 -7 q 618 0 667 -7 l 363 538 q 279 732 307 660 l 274 731 q 289 353 289 535 l 289 0 q 201 -7 250 -7 q 115 0 151 -7 l 115 946 q 221 956 156 956 q 335 949 286 956 l 588 411 l 678 206 l 682 207 q 668 588 668 408 l 668 842 q 692 931 668 904 q 771 957 715 957 l 831 957 m 317 1258 l 476 1156 l 640 1272 q 687 1242 663 1264 q 718 1197 711 1221 l 554 1033 q 399 1032 485 1015 l 242 1182 q 273 1230 250 1208 q 317 1258 296 1251 z "},"ň":{"ha":758,"x_min":96,"x_max":697,"o":"m 668 464 l 668 161 q 697 29 668 72 q 590 -10 653 -10 q 508 17 531 -10 q 486 103 486 44 l 486 426 q 471 514 486 489 q 414 539 456 539 q 276 472 340 539 l 276 0 q 233 -6 256 -4 q 186 -7 210 -7 q 140 -6 163 -7 q 96 0 117 -4 l 96 688 l 104 697 l 174 697 q 271 614 251 697 q 472 701 372 701 q 620 637 572 701 q 668 464 668 572 m 257 1028 l 385 904 l 524 1038 q 606 965 579 1017 l 457 776 q 382 767 425 767 q 307 776 339 768 l 175 951 q 210 999 186 978 q 257 1028 235 1019 z "},"Œ":{"ha":1260,"x_min":58,"x_max":1213,"o":"m 776 239 l 775 153 q 828 155 804 154 q 872 156 853 156 l 1213 156 q 1188 36 1213 74 q 1090 -1 1163 -1 l 653 -1 q 543 -15 590 -11 q 463 -19 496 -19 q 292 14 367 -19 q 165 110 217 47 q 85 265 113 174 q 58 474 58 357 q 85 683 58 590 q 165 838 113 775 q 292 935 217 901 q 463 968 367 968 q 538 963 490 968 q 654 949 586 958 l 1182 949 q 1186 919 1185 936 q 1188 883 1188 903 q 1184 836 1188 860 q 1172 792 1181 813 l 775 792 l 776 717 l 776 553 q 817 554 794 554 q 867 554 839 554 l 1103 554 q 1110 517 1107 538 q 1113 478 1113 497 q 1110 438 1113 457 q 1103 401 1107 418 l 776 401 l 776 239 m 461 126 q 596 146 518 126 l 596 801 q 463 822 522 822 q 251 474 251 822 q 461 126 251 126 z "},"œ":{"ha":1131,"x_min":51,"x_max":1078,"o":"m 1063 286 l 682 286 q 717 165 686 208 q 825 122 747 122 q 909 134 863 122 q 1007 169 956 146 q 1058 60 1047 128 q 797 -19 950 -19 q 578 75 647 -19 q 367 -19 504 -19 q 231 6 290 -19 q 133 79 172 32 q 72 194 93 126 q 51 344 51 261 q 132 610 51 513 q 368 708 213 708 q 582 610 504 708 q 790 708 656 708 q 913 687 858 708 q 1003 626 967 665 q 1058 532 1039 586 q 1078 414 1078 478 q 1074 348 1078 379 q 1063 286 1069 317 m 361 572 q 238 344 238 572 q 361 118 238 118 q 486 344 486 118 q 455 515 486 457 q 361 572 424 574 m 796 578 q 681 414 689 578 l 907 414 l 907 429 q 796 578 907 578 z "},"Ŕ":{"ha":844,"x_min":115,"x_max":814,"o":"m 768 663 q 755 576 768 617 q 718 502 742 535 q 663 445 694 469 q 594 408 632 421 q 655 365 631 396 q 697 286 679 335 l 749 146 q 776 86 761 111 q 814 44 792 61 q 762 4 796 19 q 685 -11 728 -11 q 618 14 643 -11 q 572 99 593 39 l 514 264 q 468 338 496 313 q 385 364 440 364 l 300 364 l 300 0 q 257 -5 281 -3 q 206 -7 233 -7 q 115 0 154 -7 l 115 942 l 125 950 q 316 954 238 953 q 442 956 394 956 q 680 881 592 956 q 768 663 768 806 m 300 814 l 300 508 q 428 513 372 513 q 576 663 576 513 q 428 813 576 813 q 353 813 385 813 q 300 814 322 813 m 261 1100 l 557 1279 q 606 1219 582 1260 q 632 1139 629 1178 l 314 1011 q 279 1049 294 1022 q 261 1100 264 1075 z "},"ŕ":{"ha":532,"x_min":56,"x_max":528,"o":"m 56 606 q 78 658 61 631 q 114 700 96 686 q 268 575 226 686 q 444 699 321 699 q 528 689 490 699 q 483 519 528 592 q 419 529 463 526 q 289 443 339 529 l 289 0 q 199 -7 247 -7 q 107 0 151 -7 l 107 463 q 56 606 107 561 m 168 821 l 376 1049 q 447 1006 413 1038 q 493 938 481 974 l 244 749 q 168 821 189 767 z "},"Ŗ":{"ha":844,"x_min":115,"x_max":814,"o":"m 768 663 q 755 576 768 617 q 718 502 742 535 q 663 445 694 469 q 594 408 632 421 q 655 365 631 396 q 697 286 679 335 l 749 146 q 776 86 761 111 q 814 44 792 61 q 762 4 796 19 q 685 -11 728 -11 q 618 14 643 -11 q 572 99 593 39 l 514 264 q 468 338 496 313 q 385 364 440 364 l 300 364 l 300 0 q 257 -5 281 -3 q 206 -7 233 -7 q 115 0 154 -7 l 115 942 l 125 950 q 316 954 238 953 q 442 956 394 956 q 680 881 592 956 q 768 663 768 806 m 300 814 l 300 508 q 428 513 372 513 q 576 663 576 513 q 428 813 576 813 q 353 813 385 813 q 300 814 322 813 m 533 -82 q 549 -160 549 -115 q 497 -296 549 -236 q 356 -386 446 -356 q 299 -311 311 -371 q 386 -175 386 -257 q 368 -101 386 -133 q 447 -74 400 -79 q 533 -82 494 -68 z "},"ŗ":{"ha":532,"x_min":53,"x_max":528,"o":"m 56 606 q 78 658 61 631 q 114 700 96 686 q 268 575 226 686 q 444 699 321 699 q 528 689 490 699 q 483 519 528 592 q 419 529 463 526 q 289 443 339 529 l 289 0 q 199 -7 247 -7 q 107 0 151 -7 l 107 463 q 56 606 107 561 m 288 -82 q 303 -160 303 -115 q 251 -296 303 -236 q 110 -386 200 -356 q 53 -311 65 -371 q 140 -175 140 -257 q 122 -101 140 -133 q 201 -74 154 -79 q 288 -82 249 -68 z "},"Ř":{"ha":844,"x_min":115,"x_max":814,"o":"m 768 663 q 755 576 768 617 q 718 502 742 535 q 663 445 694 469 q 594 408 632 421 q 655 365 631 396 q 697 286 679 335 l 749 146 q 776 86 761 111 q 814 44 792 61 q 762 4 796 19 q 685 -11 728 -11 q 618 14 643 -11 q 572 99 593 39 l 514 264 q 468 338 496 313 q 385 364 440 364 l 300 364 l 300 0 q 257 -5 281 -3 q 206 -7 233 -7 q 115 0 154 -7 l 115 942 l 125 950 q 316 954 238 953 q 442 956 394 956 q 680 881 592 956 q 768 663 768 806 m 300 814 l 300 508 q 428 513 372 513 q 576 663 576 513 q 428 813 576 813 q 353 813 385 813 q 300 814 322 813 m 254 1258 l 414 1156 l 578 1272 q 624 1242 600 1264 q 656 1197 649 1221 l 492 1033 q 336 1032 422 1015 l 179 1182 q 210 1230 188 1208 q 254 1258 233 1251 z "},"ř":{"ha":532,"x_min":56,"x_max":528,"o":"m 56 606 q 78 658 61 631 q 114 700 96 686 q 268 575 226 686 q 444 699 321 699 q 528 689 490 699 q 483 519 528 592 q 419 529 463 526 q 289 443 339 529 l 289 0 q 199 -7 247 -7 q 107 0 151 -7 l 107 463 q 56 606 107 561 m 153 1028 l 281 904 l 419 1038 q 501 965 475 1017 l 353 776 q 278 767 321 767 q 203 776 235 768 l 71 951 q 106 999 82 978 q 153 1028 131 1019 z "},"Ś":{"ha":772,"x_min":31,"x_max":726,"o":"m 31 83 q 56 162 35 122 q 106 225 78 201 q 386 133 249 133 q 492 165 453 133 q 531 243 531 196 q 424 369 528 324 l 260 439 q 114 542 163 479 q 65 688 65 606 q 90 801 65 750 q 159 890 114 853 q 266 947 204 926 q 403 968 328 968 q 703 892 556 968 q 638 750 699 807 q 393 817 497 817 q 291 786 326 817 q 256 711 256 756 q 354 606 256 647 l 518 536 q 672 426 618 494 q 726 269 726 358 q 704 153 726 207 q 637 62 682 100 q 524 2 592 24 q 365 -19 457 -19 q 31 83 188 -19 m 240 1100 l 536 1279 q 585 1219 561 1260 q 611 1139 608 1178 l 293 1011 q 258 1049 274 1022 q 240 1100 243 1075 z "},"ś":{"ha":611,"x_min":35,"x_max":572,"o":"m 35 49 q 52 116 36 79 q 89 174 68 153 q 282 114 199 114 q 356 132 328 114 q 385 181 385 150 q 310 258 385 229 l 232 288 q 57 492 57 351 q 76 581 57 542 q 128 649 94 621 q 210 693 163 678 q 315 708 257 708 q 374 704 342 708 q 440 692 407 700 q 504 675 474 685 q 557 654 535 665 q 543 582 557 619 q 506 526 529 544 q 315 575 396 575 q 258 558 279 575 q 238 513 238 540 q 307 444 238 469 l 392 414 q 528 326 483 382 q 572 197 572 271 q 499 40 572 99 q 288 -19 425 -19 q 35 49 153 -19 m 190 821 l 399 1049 q 469 1006 435 1038 q 515 938 503 974 l 267 749 q 190 821 211 767 z "},"Š":{"ha":772,"x_min":31,"x_max":726,"o":"m 31 83 q 56 162 35 122 q 106 225 78 201 q 386 133 249 133 q 492 165 453 133 q 531 243 531 196 q 424 369 528 324 l 260 439 q 114 542 163 479 q 65 688 65 606 q 90 801 65 750 q 159 890 114 853 q 266 947 204 926 q 403 968 328 968 q 703 892 556 968 q 638 750 699 807 q 393 817 497 817 q 291 786 326 817 q 256 711 256 756 q 354 606 256 647 l 518 536 q 672 426 618 494 q 726 269 726 358 q 704 153 726 207 q 637 62 682 100 q 524 2 592 24 q 365 -19 457 -19 q 31 83 188 -19 m 231 1258 l 390 1156 l 554 1272 q 601 1242 576 1264 q 632 1197 625 1221 l 468 1033 q 313 1032 399 1015 l 156 1182 q 187 1230 164 1208 q 231 1258 210 1251 z "},"š":{"ha":611,"x_min":35,"x_max":572,"o":"m 35 49 q 52 116 36 79 q 89 174 68 153 q 282 114 199 114 q 356 132 328 114 q 385 181 385 150 q 310 258 385 229 l 232 288 q 57 492 57 351 q 76 581 57 542 q 128 649 94 621 q 210 693 163 678 q 315 708 257 708 q 374 704 342 708 q 440 692 407 700 q 504 675 474 685 q 557 654 535 665 q 543 582 557 619 q 506 526 529 544 q 315 575 396 575 q 258 558 279 575 q 238 513 238 540 q 307 444 238 469 l 392 414 q 528 326 483 382 q 572 197 572 271 q 499 40 572 99 q 288 -19 425 -19 q 35 49 153 -19 m 175 1028 l 303 904 l 442 1038 q 524 965 497 1017 l 375 776 q 300 767 343 767 q 225 776 257 768 l 93 951 q 128 999 104 978 q 175 1028 153 1019 z "},"Ť":{"ha":696,"x_min":11,"x_max":692,"o":"m 442 794 l 443 692 l 443 0 q 349 -7 403 -7 q 256 0 296 -7 l 256 692 l 257 794 l 172 793 l 18 793 q 11 871 11 828 q 18 949 11 914 l 682 949 q 692 873 692 914 q 668 813 692 832 q 592 793 644 793 l 526 793 l 442 794 l 442 794 m 183 1258 l 343 1156 l 507 1272 q 553 1242 529 1264 q 585 1197 578 1221 l 421 1033 q 265 1032 351 1015 l 108 1182 q 140 1230 117 1208 q 183 1258 163 1251 z "},"ť":{"ha":540,"x_min":10,"x_max":556,"o":"m 468 690 q 476 625 476 657 q 468 560 476 593 l 300 563 l 300 197 q 360 133 300 133 l 446 133 q 460 54 460 92 q 456 6 460 17 q 289 -7 371 -7 q 122 163 122 -7 l 122 561 l 17 560 q 10 625 10 588 q 17 690 10 663 l 122 689 l 122 789 q 144 875 122 850 q 221 900 167 900 l 290 900 l 300 892 l 300 688 l 468 690 m 382 785 l 399 1097 q 481 1100 432 1107 q 556 1074 529 1093 l 486 778 q 431 772 463 769 q 382 785 400 774 z "},"Ů":{"ha":932,"x_min":103,"x_max":829,"o":"m 829 949 l 829 342 q 734 74 829 168 q 465 -19 639 -19 q 198 74 293 -19 q 103 342 103 168 l 103 947 l 111 957 l 181 957 q 263 928 236 957 q 289 838 289 900 l 289 340 q 465 129 289 129 q 643 340 643 129 l 643 949 q 736 956 682 956 q 829 949 790 956 m 332 969 q 282 1089 282 1017 q 296 1156 282 1125 q 333 1209 310 1186 q 390 1244 357 1232 q 464 1257 424 1257 q 538 1244 504 1257 q 595 1208 571 1231 q 633 1154 619 1185 q 646 1089 646 1124 q 633 1024 646 1054 q 595 971 619 993 q 538 935 571 949 q 464 922 504 922 q 332 969 383 922 m 464 1163 q 413 1140 429 1163 q 396 1089 396 1117 q 413 1039 396 1061 q 464 1017 431 1017 q 515 1039 499 1017 q 532 1089 532 1061 q 515 1140 532 1117 q 464 1163 499 1163 z "},"ů":{"ha":761,"x_min":61,"x_max":703,"o":"m 90 225 l 90 529 q 61 661 90 615 q 167 700 107 700 q 250 672 228 700 q 272 586 272 643 l 272 263 q 288 177 272 203 q 344 151 303 151 q 482 215 418 151 l 482 689 q 572 696 513 696 q 664 689 631 696 l 664 196 q 703 81 664 114 q 678 29 696 56 q 642 -11 661 3 q 501 88 540 -1 q 281 -12 394 -12 q 139 53 188 -12 q 90 225 90 118 m 238 800 q 188 919 188 847 q 201 986 188 956 q 239 1040 215 1017 q 296 1075 263 1063 q 369 1088 329 1088 q 443 1074 410 1088 q 501 1038 476 1061 q 538 985 525 1015 q 551 919 551 954 q 538 854 551 885 q 501 801 525 824 q 443 765 476 778 q 369 751 410 751 q 238 800 290 751 m 319 972 q 304 948 308 961 q 300 919 300 935 q 319 868 300 889 q 369 847 338 847 q 419 868 400 847 q 439 919 439 889 q 419 972 439 950 q 369 993 400 993 q 342 988 356 993 q 319 972 329 983 z "},"Ÿ":{"ha":726,"x_min":4,"x_max":724,"o":"m 439 674 l 549 949 q 629 956 581 956 q 717 943 678 956 l 724 932 l 457 296 l 457 0 q 364 -7 421 -7 q 271 0 307 -7 l 271 301 l 4 926 q 110 960 63 960 q 179 942 157 960 q 218 882 201 924 l 306 668 q 365 482 342 574 l 374 482 q 439 674 396 563 m 597 1169 q 613 1104 613 1146 q 606 1058 613 1076 q 586 1035 600 1040 q 556 1026 572 1029 q 522 1022 540 1022 q 488 1026 506 1022 q 456 1035 471 1029 q 433 1059 440 1042 q 426 1106 426 1076 q 433 1152 426 1133 q 456 1176 440 1171 q 488 1185 471 1182 q 522 1189 506 1189 q 597 1169 563 1189 m 136 1169 q 210 1189 167 1189 q 243 1185 226 1189 q 276 1177 260 1182 q 298 1154 292 1172 q 304 1106 304 1136 q 299 1058 304 1075 q 276 1034 293 1040 q 243 1025 260 1028 q 210 1022 226 1022 q 146 1035 171 1024 q 121 1104 121 1047 q 136 1169 121 1146 z "},"Ź":{"ha":793,"x_min":58,"x_max":735,"o":"m 82 188 l 411 661 q 522 801 461 732 l 518 806 q 303 794 429 794 l 92 794 q 85 861 85 822 q 97 949 85 900 l 692 949 q 718 827 718 858 q 696 764 718 796 l 368 292 q 258 153 314 217 l 263 149 q 451 157 382 157 l 561 157 q 721 186 658 157 q 735 99 735 147 q 701 26 735 51 q 610 0 668 0 l 81 0 q 58 122 58 93 q 82 188 58 151 m 240 1100 l 536 1279 q 585 1219 561 1260 q 611 1139 608 1178 l 293 1011 q 258 1049 274 1022 q 240 1100 243 1075 z "},"ź":{"ha":622,"x_min":42,"x_max":583,"o":"m 68 161 l 263 424 q 374 557 283 451 l 369 563 q 190 553 289 553 l 65 553 q 58 616 58 583 q 69 689 58 649 l 544 689 q 568 587 568 618 q 549 531 568 556 l 353 265 q 246 136 292 186 l 250 129 q 369 136 304 136 l 426 136 q 565 158 519 136 q 583 82 583 114 q 479 0 583 0 l 64 0 q 42 93 42 61 q 68 161 42 125 m 194 821 l 403 1049 q 473 1006 439 1038 q 519 938 507 974 l 271 749 q 194 821 215 767 z "},"Ż":{"ha":793,"x_min":58,"x_max":735,"o":"m 82 188 l 411 661 q 522 801 461 732 l 518 806 q 303 794 429 794 l 92 794 q 85 861 85 822 q 97 949 85 900 l 692 949 q 718 827 718 858 q 696 764 718 796 l 368 292 q 258 153 314 217 l 263 149 q 451 157 382 157 l 561 157 q 721 186 658 157 q 735 99 735 147 q 701 26 735 51 q 610 0 668 0 l 81 0 q 58 122 58 93 q 82 188 58 151 m 307 1051 q 297 1085 300 1067 q 293 1122 293 1103 q 297 1160 293 1142 q 307 1194 300 1179 q 399 1214 343 1214 q 488 1194 456 1214 q 501 1122 501 1163 q 488 1051 501 1083 q 394 1032 456 1032 q 307 1051 335 1032 z "},"ż":{"ha":622,"x_min":42,"x_max":583,"o":"m 68 161 l 263 424 q 374 557 283 451 l 369 563 q 190 553 289 553 l 65 553 q 58 616 58 583 q 69 689 58 649 l 544 689 q 568 587 568 618 q 549 531 568 556 l 353 265 q 246 136 292 186 l 250 129 q 369 136 304 136 l 426 136 q 565 158 519 136 q 583 82 583 114 q 479 0 583 0 l 64 0 q 42 93 42 61 q 68 161 42 125 m 222 957 q 315 975 256 975 q 403 957 374 975 q 417 885 417 925 q 403 813 417 844 q 313 793 371 793 q 222 813 254 793 q 208 885 208 844 q 222 957 208 925 z "},"":{"ha":793,"x_min":58,"x_max":735,"o":"m 82 188 l 411 661 q 522 801 461 732 l 518 806 q 303 794 429 794 l 92 794 q 85 861 85 822 q 97 949 85 900 l 692 949 q 718 827 718 858 q 696 764 718 796 l 368 292 q 258 153 314 217 l 263 149 q 451 157 382 157 l 561 157 q 721 186 658 157 q 735 99 735 147 q 701 26 735 51 q 610 0 668 0 l 81 0 q 58 122 58 93 q 82 188 58 151 m 232 1258 l 392 1156 l 556 1272 q 602 1242 578 1264 q 633 1197 626 1221 l 469 1033 q 314 1032 400 1015 l 157 1182 q 188 1230 165 1208 q 232 1258 211 1251 z "},"":{"ha":622,"x_min":42,"x_max":583,"o":"m 68 161 l 263 424 q 374 557 283 451 l 369 563 q 190 553 289 553 l 65 553 q 58 616 58 583 q 69 689 58 649 l 544 689 q 568 587 568 618 q 549 531 568 556 l 353 265 q 246 136 292 186 l 250 129 q 369 136 304 136 l 426 136 q 565 158 519 136 q 583 82 583 114 q 479 0 583 0 l 64 0 q 42 93 42 61 q 68 161 42 125 m 181 1028 l 308 904 l 447 1038 q 529 965 503 1017 l 381 776 q 306 767 349 767 q 231 776 263 768 l 99 951 q 134 999 110 978 q 181 1028 158 1019 z "},"ȷ":{"ha":406,"x_min":26,"x_max":311,"o":"m 311 549 l 311 33 q 303 -97 311 -47 q 272 -190 296 -146 q 200 -262 247 -235 q 76 -306 153 -289 q 26 -194 31 -265 q 110 -131 88 -167 q 133 -24 133 -96 l 133 483 q 69 560 133 560 l 39 560 q 31 624 31 592 q 39 688 31 656 q 157 694 111 694 l 182 694 q 276 656 242 694 q 311 549 311 617 z "},"ˆ":{"ha":553,"x_min":63,"x_max":490,"o":"m 410 763 l 281 886 l 144 754 q 63 825 92 774 l 208 1013 q 360 1013 275 1035 l 490 839 q 456 791 479 813 q 410 763 432 769 z "},"ˇ":{"ha":553,"x_min":63,"x_max":493,"o":"m 144 1028 l 272 904 l 411 1038 q 493 965 467 1017 l 344 776 q 269 767 313 767 q 194 776 226 768 l 63 951 q 98 999 74 978 q 144 1028 122 1019 z "},"˙":{"ha":553,"x_min":172,"x_max":381,"o":"m 186 957 q 278 975 219 975 q 367 957 338 975 q 381 885 381 925 q 367 813 381 844 q 276 793 335 793 q 186 813 218 793 q 172 885 172 844 q 186 957 172 925 z "},"˚":{"ha":553,"x_min":94,"x_max":458,"o":"m 144 800 q 94 919 94 847 q 108 986 94 956 q 146 1040 122 1017 q 203 1075 169 1063 q 276 1088 236 1088 q 350 1074 317 1088 q 408 1038 383 1061 q 445 985 432 1015 q 458 919 458 954 q 445 854 458 885 q 408 801 432 824 q 350 765 383 778 q 276 751 317 751 q 144 800 197 751 m 226 972 q 211 948 215 961 q 207 919 207 935 q 226 868 207 889 q 276 847 244 847 q 326 868 307 847 q 346 919 346 889 q 326 972 346 950 q 276 993 307 993 q 249 988 263 993 q 226 972 236 983 z "},"˜":{"ha":553,"x_min":22,"x_max":531,"o":"m 285 794 l 217 828 q 197 837 207 833 q 176 840 188 840 q 150 833 164 840 q 122 807 136 826 l 108 788 q 57 804 82 789 q 22 843 32 819 l 35 871 q 98 954 54 926 q 189 982 142 982 q 268 960 233 982 l 336 925 q 357 916 347 919 q 378 913 367 913 q 431 947 401 911 l 444 965 q 495 949 469 965 q 531 910 521 933 l 518 883 q 368 772 464 772 q 285 794 324 772 z "},"μ":{"ha":768,"x_min":65,"x_max":708,"o":"m 669 689 l 669 197 q 708 81 669 111 q 684 30 701 57 q 647 -11 667 3 q 513 75 557 -3 q 353 -12 456 -12 q 263 14 303 -12 l 263 -181 q 246 -273 263 -242 q 171 -304 229 -304 q 65 -267 113 -304 q 94 -133 94 -224 l 94 689 q 182 696 129 696 q 234 694 211 696 q 274 689 257 692 l 274 250 q 302 170 276 199 q 375 142 328 142 q 488 206 440 142 l 488 689 q 578 696 522 696 q 630 694 607 696 q 669 689 653 692 z "},"ẞ":{"ha":892,"x_min":13,"x_max":853,"o":"m 139 0 l 139 521 l 19 519 q 14 554 15 536 q 13 590 13 572 q 14 626 13 608 q 19 661 15 643 l 139 660 l 139 699 q 226 901 139 831 q 458 971 313 971 q 591 951 531 971 q 694 893 651 931 q 760 803 736 856 q 783 688 783 751 q 761 581 783 638 q 688 543 715 567 q 661 492 661 519 q 700 424 660 460 l 753 374 q 853 185 853 278 q 833 101 853 139 q 778 37 813 64 q 696 -5 743 10 q 593 -19 649 -19 q 404 21 485 -19 q 409 54 404 36 q 421 90 414 72 q 437 122 428 107 q 457 147 446 138 q 515 125 488 132 q 567 118 543 118 q 634 137 607 118 q 661 186 661 156 q 650 226 661 204 q 613 271 639 247 l 556 322 q 468 476 468 401 q 502 571 468 525 q 594 640 536 617 q 599 683 599 661 q 563 790 599 747 q 458 832 526 832 q 324 679 324 832 l 324 0 q 277 -6 300 -4 q 231 -7 254 -7 q 185 -6 207 -7 q 139 0 163 -4 z "},"–":{"ha":756,"x_min":81,"x_max":675,"o":"m 667 297 l 89 297 q 81 369 81 328 q 89 439 81 411 l 667 439 q 675 369 675 411 q 667 297 675 328 z "},"—":{"ha":1121,"x_min":99,"x_max":1024,"o":"m 1015 297 l 106 297 q 99 369 99 328 q 106 439 99 410 l 1015 439 q 1024 369 1024 411 q 1015 297 1024 328 z "},"‘":{"ha":346,"x_min":56,"x_max":311,"o":"m 72 710 q 56 811 56 756 q 110 979 56 907 q 268 1083 164 1051 q 300 1052 289 1072 q 311 1010 311 1032 l 311 999 q 203 881 207 954 q 249 867 233 874 q 270 850 265 861 q 277 824 275 839 q 279 786 279 808 q 272 730 279 751 q 249 701 264 708 q 213 691 235 694 q 165 688 192 688 q 72 710 104 688 z "},"’":{"ha":346,"x_min":32,"x_max":289,"o":"m 272 1061 q 289 960 289 1017 q 235 791 289 864 q 76 686 181 718 q 44 718 57 697 q 33 772 32 739 q 108 819 75 788 q 143 890 142 850 q 98 901 114 894 q 76 919 82 907 q 69 948 71 932 q 67 986 67 964 q 82 1061 67 1038 q 181 1083 122 1083 q 272 1061 238 1083 z "},"‚":{"ha":346,"x_min":33,"x_max":290,"o":"m 274 158 q 290 57 290 118 q 236 -111 290 -39 q 78 -217 182 -183 q 46 -185 58 -206 q 35 -131 33 -164 q 109 -84 76 -115 q 143 -12 142 -53 q 99 -1 114 -8 q 79 16 83 6 q 72 44 75 26 q 68 83 68 61 q 83 158 68 135 q 182 181 124 181 q 274 158 239 181 z "},"“":{"ha":644,"x_min":53,"x_max":607,"o":"m 69 710 q 53 811 53 756 q 107 979 53 907 q 265 1083 161 1051 q 297 1052 286 1072 q 308 999 308 1032 q 200 881 204 954 q 247 867 231 874 q 267 850 263 861 q 274 824 271 839 q 276 786 276 808 q 270 731 276 751 q 248 702 264 710 q 210 691 232 694 q 163 688 189 688 q 69 710 101 688 m 368 710 q 351 811 351 756 q 406 979 351 907 q 564 1083 460 1051 q 596 1052 585 1072 q 607 999 607 1032 q 499 881 503 954 q 545 867 529 874 q 566 850 561 861 q 573 824 571 839 q 575 786 575 808 q 569 731 575 751 q 547 702 563 710 q 509 691 531 694 q 461 688 488 688 q 368 710 400 688 z "},"”":{"ha":644,"x_min":36,"x_max":593,"o":"m 276 1061 q 293 960 293 1017 q 239 791 293 864 q 81 686 185 718 q 49 718 61 697 q 38 772 36 739 q 113 819 79 788 q 147 890 146 850 q 102 901 118 894 q 81 919 86 907 q 73 948 75 932 q 71 986 71 964 q 86 1061 71 1038 q 185 1083 126 1083 q 276 1061 242 1083 m 576 1061 q 593 960 593 1017 q 539 791 593 864 q 381 686 485 718 q 349 718 361 697 q 338 772 336 739 q 413 819 379 788 q 447 890 446 850 q 402 901 418 894 q 381 919 386 907 q 373 948 375 932 q 371 986 371 964 q 386 1061 371 1038 q 485 1083 426 1083 q 576 1061 542 1083 z "},"„":{"ha":646,"x_min":33,"x_max":589,"o":"m 274 158 q 290 57 290 118 q 236 -111 290 -39 q 78 -217 182 -183 q 46 -185 58 -206 q 35 -131 33 -164 q 109 -84 76 -115 q 143 -12 142 -53 q 98 -1 114 -8 q 78 17 82 6 q 71 45 74 29 q 68 83 68 61 q 83 158 68 135 q 182 181 124 181 q 274 158 239 181 m 572 158 q 589 57 589 118 q 535 -111 589 -39 q 376 -217 481 -183 q 344 -185 357 -206 q 333 -131 332 -164 q 408 -84 375 -115 q 442 -12 440 -53 q 397 -2 413 -8 q 377 17 382 4 q 369 45 372 29 q 367 83 367 61 q 382 158 367 135 q 481 181 422 181 q 572 158 538 181 z "},"•":{"ha":632,"x_min":142,"x_max":493,"o":"m 164 246 q 142 375 142 294 q 164 504 142 456 q 238 533 197 524 q 318 542 278 542 q 472 504 403 542 q 493 375 493 456 q 472 246 493 293 q 319 208 415 208 q 164 246 224 208 z "},"‹":{"ha":474,"x_min":38,"x_max":426,"o":"m 421 574 l 239 357 l 426 136 q 386 79 417 107 q 325 43 356 51 l 47 300 q 38 354 38 322 q 47 408 38 386 l 322 668 q 381 631 351 660 q 421 574 411 603 z "},"›":{"ha":474,"x_min":46,"x_max":435,"o":"m 53 138 l 233 354 l 46 575 q 86 632 56 604 q 147 668 117 660 l 426 410 q 435 357 435 389 q 426 303 435 325 l 151 43 q 92 80 121 51 q 53 138 63 108 z "},"⁄":{"ha":357,"x_min":-172,"x_max":528,"o":"m -172 0 l 353 949 q 447 957 389 957 q 528 949 504 957 l 4 0 q -90 -8 -33 -8 q -172 0 -147 -8 z "},"⁴":{"ha":583,"x_min":47,"x_max":531,"o":"m 490 558 l 447 560 l 447 457 q 376 450 419 450 q 301 457 333 450 l 301 497 l 303 560 l 235 557 l 81 557 q 47 640 47 611 q 68 715 47 669 l 228 1069 q 306 1065 263 1074 q 372 1038 350 1056 l 285 846 q 196 682 236 732 l 199 679 q 301 685 254 685 l 301 743 q 329 824 301 794 q 406 853 357 853 l 443 853 l 449 847 l 449 772 l 447 685 l 525 685 q 531 629 531 663 q 519 558 531 596 l 490 558 z "},"€":{"ha":782,"x_min":18,"x_max":763,"o":"m 685 692 q 481 771 582 771 q 319 615 354 771 l 574 615 q 581 556 581 586 q 574 499 581 526 l 306 499 l 306 399 l 574 399 q 581 340 581 369 q 574 282 581 310 l 321 282 q 481 129 354 129 q 685 207 581 129 q 763 97 750 169 q 456 -19 625 -19 q 138 282 192 -19 l 25 282 q 18 340 18 310 q 25 399 18 369 l 125 399 q 124 449 124 415 q 125 499 124 482 l 25 499 q 18 556 18 526 q 25 615 18 586 l 138 615 q 456 919 192 919 q 763 801 624 919 q 735 740 757 771 q 685 692 714 708 z "}}}
